<svg width="161" height="161" viewBox="0 0 161 161" fill="none" xmlns="http://www.w3.org/2000/svg">
<path d="M124.847 23.1137L110.97 36.3948L110.242 35.6336L124.118 22.3524L124.847 23.1137Z" fill="black"/>
<path d="M80.848 3.75172V22.9596H79.7942V3.75172L80.848 3.75172Z" fill="black"/>
<path d="M37.4232 21.522L50.4006 35.6829L49.6237 36.3948L36.6463 22.2339L37.4232 21.522Z" fill="black"/>
<path d="M77.6906 36.5551C70.7008 37.2575 63.9569 40.6646 59.2853 45.7928C54.2976 51.2372 51.7686 57.9811 51.7686 65.8139C51.7686 71.8554 53.3492 76.5972 57.9506 84.5354C61.2523 90.2607 63.9218 95.424 65.0106 98.3042C67.1532 104.03 68.1719 111.406 67.5747 117.166C67.0479 122.084 67.1884 121.873 64.6945 121.873C62.1655 121.873 60.5498 122.575 59.7068 124.051C58.4072 126.193 59.2151 129.565 61.2523 130.654C61.8845 131.005 61.8845 131.076 61.0767 132.516C60.5849 133.324 60.1986 134.342 60.1986 134.799C60.1986 135.923 61.0767 137.468 62.1655 138.346L63.1139 139.084L62.4114 139.892C60.62 141.859 60.3391 144.353 61.7792 146.074C62.7275 147.163 63.6759 147.584 66.9776 148.216L68.9797 148.603V150.464C68.9797 152.923 70.2793 155.557 72.2112 156.857C73.4054 157.7 74.1079 157.876 76.1803 157.981C79.2713 158.157 81.0977 157.349 82.6432 155.206C83.7321 153.731 84.54 150.921 84.2238 149.727C84.0482 149.059 84.259 149.024 87.3499 148.778C92.4079 148.427 94.6208 147.444 95.9204 144.915C96.6229 143.58 96.3067 141.367 95.2881 140.278L94.4803 139.435L95.4286 138.452C97.6415 136.169 97.8873 133.288 96.0609 131.462L95.0774 130.443L95.7096 129.249C96.5526 127.704 96.5526 125.28 95.7096 123.418C94.7261 121.241 93.8831 120.819 90.5112 120.819H87.6309L87.3851 119.203C86.8231 115.375 87.8768 110.914 90.3004 106.945C91.0029 105.786 93.3563 102.589 95.534 99.8849C105.79 87.0292 109.724 77.8617 109.724 66.692C109.724 57.4894 106.879 50.4996 100.732 44.5635C94.3398 38.4167 86.4016 35.6769 77.6906 36.5551ZM89.1062 38.9084C97.2902 41.6833 104.385 48.5677 106.914 56.1898C110.146 65.7788 108.776 76.4918 102.945 87.1697C101.013 90.7173 98.5898 94.1244 93.9183 99.9551C89.914 104.943 87.9471 108.139 86.8582 111.511C86.0855 113.97 85.7693 118.009 86.2962 119.801C86.5069 120.644 86.4367 120.749 85.2073 120.96C84.5048 121.065 82.2217 121.17 80.1845 121.17H76.4262L76.8828 118.747C77.9716 113.197 78.5688 106.945 78.3229 103.749C77.8311 96.7236 75.9695 92.1223 71.2277 86.397C67.5747 81.9361 66.1697 79.2316 66.1697 76.6674C66.1697 73.5414 67.2586 71.75 69.8578 70.5558C71.2277 69.9235 73.5459 69.6776 74.0026 70.0991C74.1079 70.2045 73.9323 71.0475 73.5811 71.9607C71.7194 76.7026 72.8083 80.777 75.8993 80.777C77.4448 80.777 78.7795 79.8638 79.3766 78.4237C80.3952 76.0703 79.7981 73.5062 77.6906 71.1178L76.2154 69.4669L77.0935 68.7995C79.0254 67.3243 81.8705 67.535 83.9077 69.2913L85.2425 70.4504L84.6453 71.5744C83.8375 73.1199 82.6784 77.7563 82.6784 79.372C82.6784 81.9713 85.2073 83.5168 86.6826 81.8659C87.7012 80.7419 88.1578 76.9484 87.6309 74.1736C86.8933 70.3801 86.9284 70.2396 88.2983 69.4669C89.1764 68.9751 89.9843 68.8346 91.038 68.94C94.0588 69.2561 95.0071 71.1177 95.3584 77.4051C95.6042 81.6552 95.9906 83.1304 96.658 82.3576C96.8336 82.1469 96.8336 80.0043 96.6931 77.5456C96.3419 70.8719 94.8666 68.2726 91.1785 67.5702C90.2653 67.3945 89.5277 67.5701 87.9471 68.4131L85.8747 69.4669L85.2425 68.7644C84.3995 67.816 81.3436 66.3759 80.2196 66.411C78.92 66.4462 77.234 67.1487 76.11 68.1322C75.267 68.8698 74.8456 68.9751 72.9488 68.8698C67.926 68.6239 64.2379 72.6281 64.9053 77.5104C65.2565 80.1448 66.5561 82.463 69.9983 86.7482C75.3373 93.3517 76.6369 96.6534 76.953 104.311C77.1287 108.982 76.7072 113.583 75.548 119.239L75.1265 121.346L68.2421 121.557L68.5231 119.695C69.0148 116.358 68.8041 108.245 68.1367 105.013C66.8722 98.8311 64.9053 94.1595 60.3742 86.397C53.8761 75.2976 52.1901 69.6776 53.1034 62.4068C54.7191 49.4809 63.4651 40.3485 76.7072 37.7844C77.1989 37.7142 79.482 37.679 81.8002 37.7493C85.383 37.8195 86.4718 37.9952 89.1062 38.9084ZM77.0233 72.1715C77.6204 72.874 78.1824 73.8575 78.3229 74.3843C78.4283 74.9112 78.5688 75.5083 78.639 75.7542C78.8849 76.5621 78.077 78.6696 77.3043 79.1964C76.2857 79.934 75.4427 79.8638 74.5646 78.9857C73.9323 78.3534 73.8269 77.9319 73.9674 75.8947C74.1079 73.5765 74.986 70.9421 75.5832 70.9421C75.7939 70.9421 76.4262 71.5041 77.0233 72.1715ZM86.4016 73.4711C86.7177 75.0517 86.6474 79.091 86.2259 80.1799C85.8045 81.2688 85.383 81.5498 84.6453 81.2688C83.7672 80.9175 83.6618 79.7233 84.259 76.7728C85.1722 72.4525 85.9098 71.2934 86.4016 73.4711ZM93.8831 122.786C95.6745 125.034 95.6745 127.739 93.8831 129.776C92.7591 131.04 92.7943 131.708 93.9534 131.708C95.1125 131.708 96.0257 132.972 96.0257 134.553C96.0257 135.747 95.815 136.239 94.7261 137.328C93.9885 138.03 93.0753 138.768 92.724 138.979C91.9162 139.435 92.1971 140.489 93.1455 140.489C94.1641 140.489 95.1125 141.789 95.1125 143.123C95.1125 144.739 93.6373 146.249 91.319 147.057C88.5793 147.971 71.9653 147.971 67.1181 147.022C64.1325 146.46 63.6056 146.249 62.7978 145.301C62.0602 144.423 61.9197 143.966 62.0953 142.983C62.306 141.508 63.8164 139.857 65.2916 139.506C66.5912 139.154 66.6966 138.206 65.4673 138.171C63.7461 138.136 63.43 138.03 62.5168 137.117C60.7254 135.291 61.6738 132.164 64.2028 131.497C65.397 131.216 65.397 130.303 64.2379 130.303C63.0437 130.303 61.4279 129.46 60.7605 128.476C59.4609 126.65 60.4796 123.84 62.587 123.313C63.2895 123.137 69.331 122.786 76.0047 122.575C82.6784 122.33 88.1929 122.084 88.2632 122.013C88.3334 121.943 89.4925 121.873 90.7922 121.873C92.9348 121.873 93.2509 121.978 93.8831 122.786ZM83.0296 150.535C83.0296 152.502 82.011 154.574 80.3952 155.803C77.9014 157.7 73.4757 157.173 71.6141 154.75C70.5955 153.415 69.8578 150.781 70.1388 149.586L70.3496 148.743L83.0296 148.954V150.535Z" fill="black"/>
<path d="M64.6296 130.383L68.4871 130.569L84.5705 130.849L89.3613 130.911L93.3121 130.694L93.3744 131.565L70.447 131.222L64.5985 131.285L64.6296 130.383Z" fill="black"/>
<path d="M65.834 138.201L69.4985 138.571L83.8931 139.151L88.454 139.282L92.3031 139.23L92.6195 140.363L70.8958 139.23L65.975 139.199L65.834 138.201Z" fill="black"/>
</svg>
