<svg xmlns="http://www.w3.org/2000/svg" width="167.502" height="25.969" viewBox="0 0 167.502 25.969">
    <g id="Grupo_12315" data-name="Grupo 12315" transform="translate(-12619 20560.469)">
      <g id="Grupo_12314" data-name="Grupo 12314">
        <g id="Grupo_12313" data-name="Grupo 12313" transform="translate(12619 -20560.469)">
          <g id="Grupo_6558" data-name="Grupo 6558">
            <path id="Caminho_7105" data-name="Caminho 7105" d="M214.471,173.129H128.8a2.007,2.007,0,0,0-2.007,2.007V197.09A2.007,2.007,0,0,0,128.8,199.1h85.669a2.007,2.007,0,0,0,2.007-2.007V175.136A2.007,2.007,0,0,0,214.471,173.129Zm-23.988,23.187a1.57,1.57,0,0,1-1.57,1.57H129.579a1.57,1.57,0,0,1-1.57-1.57v-20.4a1.57,1.57,0,0,1,1.57-1.57h59.335a1.57,1.57,0,0,1,1.57,1.57Zm24.786,0a1.57,1.57,0,0,1-1.57,1.57H193.3a1.57,1.57,0,0,1-1.57-1.57v-20.4a1.57,1.57,0,0,1,1.57-1.57h20.4a1.57,1.57,0,0,1,1.57,1.57Z" transform="translate(-126.795 -173.129)" fill="#fff"/>
            <rect id="Retângulo_5815" data-name="Retângulo 5815" width="62.474" height="23.54" rx="1" transform="translate(1.215 1.216)" fill="#161d36"/>
            <rect id="Retângulo_5816" data-name="Retângulo 5816" width="23.54" height="23.54" rx="1" transform="translate(64.934 1.216)" fill="#ce1022"/>
          </g>
          <path id="Caminho_7106" data-name="Caminho 7106" d="M277.587,257.491v6.321h-1.268v-6.321h-2.181v-1.128h5.63v1.128Z" transform="translate(-249.338 -242.354)" fill="#fff"/>
          <path id="Caminho_7107" data-name="Caminho 7107" d="M350.162,274.714h-1.214l-2.063-5.243h1.3l1.386,3.846,1.386-3.846h1.257Z" transform="translate(-310.513 -253.255)" fill="#fff"/>
          <rect id="Retângulo_5817" data-name="Retângulo 5817" width="1.214" height="7.489" transform="translate(47.159 13.97)" fill="#fff"/>
          <path id="Caminho_7108" data-name="Caminho 7108" d="M457.5,274.714l-1.311-1.891-1.322,1.891h-1.375l2-2.664-1.923-2.579h1.429l1.235,1.783,1.257-1.783h1.386l-1.945,2.568,2,2.676Z" transform="translate(-399.501 -253.255)" fill="#fff"/>
          <path id="Caminho_7109" data-name="Caminho 7109" d="M305.423,269.17a1.845,1.845,0,0,0-1.251.5V269.2h-1.053v5.243h1.214v-2.278a4.442,4.442,0,0,1,.118-1.364c.124-.341.312-.606,1.268-.683l.119-.973s-.127,0-.415.025" transform="translate(-273.44 -252.984)" fill="#fff"/>
          <path id="Caminho_7110" data-name="Caminho 7110" d="M319.4,273.35c-.827,0-1.02-.247-1.02-.7,0-.559.236-.688.977-.688h1.408c0,.913-.119,1.386-1.365,1.386m.3-4.416a8.553,8.553,0,0,0-1.425.068l-.116.928c.717-.039,1.429-.013,1.475-.011,1.047.043,1.07.414,1.108,1.057H319.4c-1.117,0-2.235.172-2.235,1.7,0,1.279.795,1.676,2.041,1.676a2.461,2.461,0,0,0,1.633-.516v.43h1.085v-3.417c0-1.354-.822-1.862-2.225-1.913" transform="translate(-285.701 -252.805)" fill="#fff"/>
          <path id="Caminho_7111" data-name="Caminho 7111" d="M381.442,269.959c1.128,0,1.193.43,1.193,1.182h-2.363c0-.7.107-1.182,1.171-1.182m-.008,3.431c-.824-.029-1.091-.322-1.162-.844,0-.024-.006-.048-.008-.073s0-.024,0-.037c-.008-.1-.011-.2-.011-.307h3.588c0-1.827-.107-3.169-2.4-3.169-2.105,0-2.406,1.2-2.406,2.772a3.687,3.687,0,0,0,.29,1.665,2.019,2.019,0,0,0,2.043.978h.111c.739,0,1.56-.055,1.979-.1l.136-.972a21.5,21.5,0,0,1-2.161.089" transform="translate(-337.349 -252.83)" fill="#fff"/>
          <path id="Caminho_7112" data-name="Caminho 7112" d="M426.025,269.959c1.128,0,1.193.43,1.193,1.182h-2.363c0-.7.107-1.182,1.171-1.182m-.008,3.431c-.824-.029-1.091-.322-1.162-.844,0-.024-.006-.048-.008-.073s0-.024,0-.037c-.008-.1-.011-.2-.011-.307h3.589c0-1.827-.107-3.169-2.4-3.169-2.106,0-2.407,1.2-2.407,2.772a3.686,3.686,0,0,0,.29,1.665,2.018,2.018,0,0,0,2.043.978h.111c.739,0,1.56-.055,1.979-.1l.136-.972a21.493,21.493,0,0,1-2.161.089" transform="translate(-374.563 -252.83)" fill="#fff"/>
          <path id="Caminho_7113" data-name="Caminho 7113" d="M771.706,220.689c-1.924,0-3.065-1.3-3.065-3.363,0-2.293,1.34-3.407,3.055-3.407a4.336,4.336,0,0,1,1.825.38l.458-1.836a5.182,5.182,0,0,0-2.371-.458,1.19,1.19,0,0,0-.138.006c-.077-.006-.16-.006-.243-.006a5.057,5.057,0,0,0-5.249,5.458c0,2.933,1.715,5.166,5.039,5.166h.375a6.045,6.045,0,0,0,2.459-.441l-.32-1.836A4.858,4.858,0,0,1,771.706,220.689Zm20.455-5.778v7.559H794.7v-7.559Zm0,0v7.559H794.7v-7.559Zm29.954,5.723a1.933,1.933,0,0,1-.331.116v-.016a4.659,4.659,0,0,1-1.02.116,2.106,2.106,0,0,1-.039-4.19,3.948,3.948,0,0,1,1.356.215l.336-1.7a4.781,4.781,0,0,0-1.659-.287c-.044,0-.088.006-.132.006-.083-.006-.165-.006-.243-.006a3.761,3.761,0,0,0-4,3.97,3.51,3.51,0,0,0,3.694,3.826c.077,0,.154-.006.232-.006.05,0,.1.006.149.006a4.673,4.673,0,0,0,1.941-.353l-.259-1.709A.1.1,0,0,0,822.114,220.633Zm-22.186,1.23a.416.416,0,0,0-.05.05m.066-.072-.016.017v.006l-.05.05a1.75,1.75,0,0,1-.2.182m-11.986-5.75a.207.207,0,0,1-.033-.072,2.277,2.277,0,0,0-1.064-1.191,2.24,2.24,0,0,0-.452-.171,3.153,3.153,0,0,0-1.583-.028,2.156,2.156,0,0,0-.391.116,2.05,2.05,0,0,0-.2.083,2.388,2.388,0,0,0-.728.551v-.1a.573.573,0,0,0-.535-.6h-1.786c.028.673.055,1.516.055,2.448v5.094h2.365v-4.311a1.8,1.8,0,0,1,.072-.579,1.215,1.215,0,0,1,1.114-.877c.788,0,1.1.662,1.1,1.621v3.567a.571.571,0,0,0,.557.579h1.792v-4.416A4.624,4.624,0,0,0,787.694,216.344Zm27.291-1.263a2.167,2.167,0,0,0-.458-.171,3.13,3.13,0,0,0-1.577-.028,2.09,2.09,0,0,0-.4.116.947.947,0,0,0-.193.083,2.385,2.385,0,0,0-.728.551v-.1a.577.577,0,0,0-.535-.6h-1.792c.033.673.06,1.516.06,2.448v5.094h2.365v-4.311a1.809,1.809,0,0,1,.072-.579,1.209,1.209,0,0,1,1.114-.877c.783,0,1.1.662,1.1,1.621v3.567a.577.577,0,0,0,.562.579h1.786v-4.416C816.364,216.482,815.818,215.512,814.985,215.082Zm-34.023,3.325a3.6,3.6,0,0,0-1.979-3.3,4.408,4.408,0,0,0-3.17-.182,3.468,3.468,0,0,0-.722.314,3.688,3.688,0,0,0-1.786,3.225c-.005.072-.005.143-.005.237v.033c0,.094.005.182.011.27a3.609,3.609,0,0,0,1.979,3.3,4.424,4.424,0,0,0,3.17.177,3.75,3.75,0,0,0,.722-.309,3.691,3.691,0,0,0,1.786-3.231c.006-.072.006-.143.006-.237v-.033A2.21,2.21,0,0,0,780.962,218.406Zm-3.8,2.547c-.932,0-1.428-.965-1.428-2.244,0-1.1.4-2.249,1.428-2.249.981,0,1.384,1.13,1.384,2.233C778.547,220.055,778.018,220.953,777.164,220.953Zm32.143-2.365a3.7,3.7,0,0,0-1.82-3.534c-.028-.011-.055-.016-.083-.028a1.238,1.238,0,0,0-.215-.083c-.083-.028-.165-.05-.248-.072a4.331,4.331,0,0,0-2-.017c-.094.022-.182.044-.27.072a2.349,2.349,0,0,0-.27.094,3.785,3.785,0,0,0-2.161,3.236c-.017.171-.028.342-.028.513s.011.364.028.535a3.842,3.842,0,0,0,.739,2.029,1.556,1.556,0,0,0,.1.132c.033.039.066.077.1.11a3.3,3.3,0,0,0,1.582.921,6.874,6.874,0,0,0,3.286,0l.127-.033c.055-.016.116-.027.171-.044l-.32-1.615a4.76,4.76,0,0,1-1.169.121c-1.026-.017-2.145-.491-2.205-1.467l4.576.055A6.2,6.2,0,0,0,809.307,218.588Zm-4.648-.645c.061-.618.435-1.527,1.356-1.516,1.009.011,1.24.97,1.24,1.544Zm24.237.6a3.646,3.646,0,0,0-1.82-3.506l-.083-.033a1.937,1.937,0,0,0-.215-.077,2.1,2.1,0,0,0-.248-.066,4.21,4.21,0,0,0-2,.006,2.143,2.143,0,0,0-.27.072c-.171.055-.27.1-.27.1a3.972,3.972,0,0,0-2.189,3.771,4.65,4.65,0,0,0,.336,1.814,3.366,3.366,0,0,0,.43.739.7.7,0,0,0,.1.138c.033.033.066.072.1.1a3.272,3.272,0,0,0,1.582.9,6.841,6.841,0,0,0,3.286-.039l.121-.033.177-.05-.32-1.61a4.463,4.463,0,0,1-1.169.132c-1.025,0-2.145-.463-2.205-1.434h4.576A6.21,6.21,0,0,0,828.9,218.544Zm-4.648-.59c.061-.618.436-1.533,1.356-1.533,1.009,0,1.241.959,1.241,1.533ZM793.263,211.7c-.386-.006-.838-.022-1.334-.077a3.449,3.449,0,0,0-.673-.011,4.494,4.494,0,0,0-.447.072,2.768,2.768,0,0,0-1.61,1,3.8,3.8,0,0,0-.617,2.117v.083l-.011.039h-.959v1.119a1.1,1.1,0,0,0,.05.232.207.207,0,0,0,.033.072.492.492,0,0,0,.48.3h.4l.006,5.839h2.547l-.005-5.839h1.163l.331-1.731-.458.006-1.048.006v-.127a1.232,1.232,0,0,1,.651-1.263,4.386,4.386,0,0,1,1.93.055,1.656,1.656,0,0,0,.783.022c.11-.039.254-.16.254-.5a.348.348,0,0,1,.005-.077v-1.329Zm21.767,12.653a1.335,1.335,0,0,1,.662.143l.132-.336a1.379,1.379,0,0,0-.722-.16,1.924,1.924,0,0,0-1.268.447,2.107,2.107,0,0,0-.711,1.615,1.269,1.269,0,0,0,1.356,1.389,2.128,2.128,0,0,0,.871-.16l-.055-.336a1.7,1.7,0,0,1-.717.143.96.96,0,0,1-1.02-1.092,1.778,1.778,0,0,1,.513-1.279A1.446,1.446,0,0,1,815.03,224.355Zm2.288.59a1.676,1.676,0,0,0-1.665,1.72.709.709,0,0,0,.689.794,1.054,1.054,0,0,0,.937-.678h.011a5.448,5.448,0,0,0-.055.623h.38a5.52,5.52,0,0,1,.1-1.114l.248-1.257A2.494,2.494,0,0,0,817.318,224.945Zm.044,1.086c-.121.64-.529,1.092-.871,1.092-.314,0-.414-.265-.414-.535a1.276,1.276,0,0,1,1.136-1.318,1.062,1.062,0,0,1,.287.033Zm.066-2.04h-.292l-.579.711h.331l.353-.452h.005l.215.452h.309Zm3.738.954a1.035,1.035,0,0,0-.882.535.52.52,0,0,0-.562-.535,1.013,1.013,0,0,0-.844.507h-.016l.066-.452h-.364c-.022.2-.061.43-.11.7l-.32,1.7h.4l.22-1.207c.1-.513.469-.91.772-.91s.359.21.359.414a1.924,1.924,0,0,1-.028.292l-.27,1.411h.4l.232-1.235c.1-.535.458-.882.755-.882.265,0,.358.165.358.419a1.43,1.43,0,0,1-.033.309l-.259,1.389h.4l.27-1.422a2.211,2.211,0,0,0,.039-.408A.572.572,0,0,0,821.166,224.945Zm2.487,0a1.013,1.013,0,0,0-.849.491H822.8l.314-1.56H822.7l-.513,2.591a1.66,1.66,0,0,0-.044.375c0,.441.314.618.739.618a1.588,1.588,0,0,0,1.494-1.648C824.375,225.38,824.176,224.945,823.652,224.945Zm-.7,2.189c-.259,0-.391-.121-.391-.353a1.022,1.022,0,0,1,.033-.309l.05-.254c.121-.562.491-.932.849-.932.325,0,.458.276.458.574C823.95,226.395,823.57,227.134,822.952,227.134ZM825.02,225l-.458,2.4h.408l.458-2.4Zm.353-.948a.281.281,0,0,0-.276.281.234.234,0,0,0,.232.259h.006a.276.276,0,0,0,.281-.281A.242.242,0,0,0,825.373,224.052Zm1.593.893a1.435,1.435,0,0,0-1.334,1.522.922.922,0,0,0,.943.992h.006a1.441,1.441,0,0,0,1.329-1.516A.918.918,0,0,0,826.966,224.945Zm-.336,2.183h-.006c-.342,0-.562-.281-.562-.673,0-.551.342-1.185.86-1.185a.6.6,0,0,1,.562.673C827.484,226.505,827.115,227.128,826.63,227.128Zm-24.386-6.875v-8.871H799.7v3.9a1.971,1.971,0,0,0-.722-.359,3.5,3.5,0,0,0-1.715-.044c-.072.017-.143.033-.215.055-1.318.386-2.354,1.759-2.338,3.876,0,2.189,1.174,3.661,2.691,3.826a2.963,2.963,0,0,0,1.825-.248,2.464,2.464,0,0,0,.237-.138,1.051,1.051,0,0,0,.127-.088c.033-.022.066-.05.094-.072a1.75,1.75,0,0,0,.2-.182.416.416,0,0,1,.05-.05v-.006l.016-.017.006-.006a.9.9,0,0,0,.921.651H802.3C802.277,221.984,802.244,221.1,802.244,220.253Zm-2.575-.6a1.306,1.306,0,0,1-1.268,1.114c-.9,0-1.483-.794-1.483-2.062,0-1.18.5-2.128,1.5-2.128a1.337,1.337,0,0,1,1.268,1.136,2.3,2.3,0,0,1,.027.424v.981A2.831,2.831,0,0,1,799.669,219.658Z" transform="translate(-661.394 -204.943)" fill="#202441"/>
        </g>
      </g>
    </g>
  </svg>
  