<svg width="861" height="683" viewBox="0 0 861 683" fill="none" xmlns="http://www.w3.org/2000/svg">
<path d="M383.397 122.241L330.722 172.657L327.956 169.767L380.631 119.352L383.397 122.241Z" fill="black"/>
<path d="M216.378 48.7433V121.657H212.378V48.7433L216.378 48.7433Z" fill="black"/>
<path d="M51.5371 116.199L100.799 169.954L97.8503 172.657L48.5881 118.902L51.5371 116.199Z" fill="black"/>
<path d="M204.392 173.265C177.859 175.931 152.259 188.865 134.526 208.331C115.592 228.998 105.992 254.598 105.992 284.331C105.992 307.265 111.992 325.265 129.459 355.398C141.992 377.131 152.126 396.731 156.259 407.665C164.392 429.398 168.259 457.398 165.992 479.265C163.992 497.931 164.526 497.131 155.059 497.131C145.459 497.131 139.326 499.798 136.126 505.398C131.192 513.531 134.259 526.331 141.992 530.465C144.392 531.798 144.392 532.065 141.326 537.531C139.459 540.598 137.992 544.465 137.992 546.198C137.992 550.465 141.326 556.331 145.459 559.665L149.059 562.465L146.392 565.531C139.592 572.998 138.526 582.465 143.992 588.998C147.592 593.131 151.192 594.731 163.726 597.131L171.326 598.598V605.665C171.326 614.998 176.259 624.998 183.592 629.931C188.126 633.131 190.792 633.798 198.659 634.198C210.393 634.865 217.326 631.798 223.192 623.665C227.326 618.065 230.392 607.398 229.192 602.865C228.526 600.331 229.326 600.198 241.059 599.265C260.259 597.931 268.659 594.198 273.592 584.598C276.259 579.531 275.059 571.131 271.193 566.998L268.126 563.798L271.726 560.065C280.126 551.398 281.059 540.465 274.126 533.531L270.393 529.665L272.792 525.131C275.992 519.265 275.992 510.065 272.792 502.998C269.059 494.731 265.859 493.131 253.059 493.131H242.126L241.193 486.998C239.059 472.465 243.059 455.531 252.259 440.465C254.926 436.065 263.859 423.931 272.126 413.665C311.059 364.865 325.993 330.065 325.993 287.665C325.993 252.731 315.193 226.198 291.859 203.665C267.593 180.331 237.459 169.931 204.392 173.265ZM247.726 182.198C278.792 192.731 305.726 218.865 315.326 247.798C327.592 284.198 322.393 324.865 300.259 365.398C292.926 378.865 283.726 391.798 265.993 413.931C250.793 432.865 243.326 444.998 239.193 457.798C236.259 467.131 235.059 482.465 237.059 489.265C237.859 492.465 237.592 492.865 232.926 493.665C230.259 494.065 221.592 494.465 213.859 494.465H199.592L201.326 485.265C205.459 464.198 207.726 440.465 206.792 428.331C204.926 401.665 197.859 384.198 179.859 362.465C165.992 345.531 160.659 335.265 160.659 325.531C160.659 313.665 164.792 306.865 174.659 302.331C179.859 299.931 188.659 298.998 190.392 300.598C190.792 300.998 190.126 304.198 188.792 307.665C181.726 325.665 185.859 341.131 197.592 341.131C203.459 341.131 208.526 337.665 210.792 332.198C214.659 323.265 212.392 313.531 204.392 304.465L198.792 298.198L202.126 295.665C209.459 290.065 220.259 290.865 227.993 297.531L233.059 301.931L230.792 306.198C227.726 312.065 223.326 329.665 223.326 335.798C223.326 345.665 232.926 351.531 238.526 345.265C242.393 340.998 244.126 326.598 242.126 316.065C239.326 301.665 239.459 301.131 244.659 298.198C247.992 296.331 251.059 295.798 255.059 296.198C266.526 297.398 270.126 304.465 271.459 328.331C272.393 344.465 273.859 350.065 276.393 347.131C277.059 346.331 277.059 338.198 276.526 328.865C275.193 303.531 269.592 293.665 255.592 290.998C252.126 290.331 249.326 290.998 243.326 294.198L235.459 298.198L233.059 295.531C229.859 291.931 218.259 286.465 213.993 286.598C209.059 286.731 202.659 289.398 198.392 293.131C195.192 295.931 193.592 296.331 186.392 295.931C167.326 294.998 153.326 310.198 155.859 328.731C157.192 338.731 162.126 347.531 175.192 363.798C195.459 388.865 200.393 401.398 201.592 430.465C202.259 448.198 200.659 465.665 196.259 487.131L194.659 495.131L168.526 495.931L169.592 488.865C171.459 476.198 170.659 445.398 168.126 433.131C163.326 409.665 155.859 391.931 138.659 362.465C113.992 320.331 107.592 298.998 111.059 271.398C117.192 222.331 150.392 187.665 200.659 177.931C202.526 177.665 211.192 177.531 219.993 177.798C233.592 178.065 237.726 178.731 247.726 182.198ZM201.859 308.465C204.126 311.131 206.259 314.865 206.792 316.865C207.192 318.865 207.726 321.131 207.993 322.065C208.926 325.131 205.859 333.131 202.926 335.131C199.059 337.931 195.859 337.665 192.526 334.331C190.126 331.931 189.726 330.331 190.259 322.598C190.792 313.798 194.126 303.798 196.392 303.798C197.192 303.798 199.592 305.931 201.859 308.465ZM237.459 313.398C238.659 319.398 238.393 334.731 236.792 338.865C235.192 342.998 233.592 344.065 230.792 342.998C227.459 341.665 227.059 337.131 229.326 325.931C232.793 309.531 235.592 305.131 237.459 313.398ZM265.859 500.598C272.659 509.131 272.659 519.398 265.859 527.131C261.592 531.931 261.726 534.465 266.126 534.465C270.526 534.465 273.993 539.265 273.993 545.265C273.993 549.798 273.193 551.665 269.059 555.798C266.259 558.465 262.792 561.265 261.459 562.065C258.393 563.798 259.459 567.798 263.059 567.798C266.926 567.798 270.526 572.731 270.526 577.798C270.526 583.931 264.926 589.665 256.126 592.731C245.726 596.198 182.659 596.198 164.259 592.598C152.926 590.465 150.926 589.665 147.859 586.065C145.059 582.731 144.526 580.998 145.192 577.265C145.992 571.665 151.726 565.398 157.326 564.065C162.259 562.731 162.659 559.131 157.992 558.998C151.459 558.865 150.259 558.465 146.792 554.998C139.992 548.065 143.592 536.198 153.192 533.665C157.726 532.598 157.726 529.131 153.326 529.131C148.792 529.131 142.659 525.931 140.126 522.198C135.192 515.265 139.059 504.598 147.059 502.598C149.726 501.931 172.659 500.598 197.993 499.798C223.326 498.865 244.259 497.931 244.526 497.665C244.792 497.398 249.193 497.131 254.126 497.131C262.259 497.131 263.459 497.531 265.859 500.598ZM224.659 605.931C224.659 613.398 220.792 621.265 214.659 625.931C205.192 633.131 188.392 631.131 181.326 621.931C177.459 616.865 174.659 606.865 175.726 602.331L176.526 599.131L224.659 599.931V605.931Z" fill="black"/>
<path d="M154.813 529.434L169.456 530.142L230.508 531.205L248.694 531.441L263.692 530.615L263.928 533.921L176.896 532.622L154.695 532.858L154.813 529.434Z" fill="black"/>
<path d="M159.384 559.115L173.295 560.516L227.937 562.717L245.25 563.218L259.861 563.018L261.062 567.321L178.599 563.018L159.92 562.903L159.384 559.115Z" fill="black"/>
<path d="M400.681 234.379H406.988L421.817 270.6H422.329L437.158 234.379H443.465V278.015H438.522V244.861H438.096L424.459 278.015H419.687L406.05 244.861H405.624V278.015H400.681V234.379Z" fill="black"/>
<path d="M514.878 256.197C514.878 260.799 514.047 264.776 512.385 268.129C510.723 271.481 508.443 274.066 505.546 275.884C502.648 277.702 499.338 278.611 495.617 278.611C491.895 278.611 488.585 277.702 485.688 275.884C482.79 274.066 480.51 271.481 478.848 268.129C477.186 264.776 476.355 260.799 476.355 256.197C476.355 251.594 477.186 247.617 478.848 244.265C480.51 240.913 482.79 238.327 485.688 236.509C488.585 234.691 491.895 233.782 495.617 233.782C499.338 233.782 502.648 234.691 505.546 236.509C508.443 238.327 510.723 240.913 512.385 244.265C514.047 247.617 514.878 251.594 514.878 256.197ZM509.764 256.197C509.764 252.418 509.132 249.229 507.868 246.63C506.618 244.031 504.921 242.063 502.776 240.728C500.645 239.393 498.259 238.725 495.617 238.725C492.975 238.725 490.581 239.393 488.436 240.728C486.306 242.063 484.608 244.031 483.344 246.63C482.094 249.229 481.469 252.418 481.469 256.197C481.469 259.975 482.094 263.164 483.344 265.763C484.608 268.363 486.306 270.33 488.436 271.665C490.581 273.001 492.975 273.668 495.617 273.668C498.259 273.668 500.645 273.001 502.776 271.665C504.921 270.33 506.618 268.363 507.868 265.763C509.132 263.164 509.764 259.975 509.764 256.197Z" fill="black"/>
<path d="M561.229 278.015H547.763V234.379H561.826C566.058 234.379 569.681 235.252 572.692 236.999C575.703 238.732 578.012 241.225 579.617 244.478C581.222 247.717 582.024 251.594 582.024 256.111C582.024 260.657 581.215 264.57 579.595 267.852C577.976 271.119 575.618 273.633 572.522 275.394C569.425 277.141 565.661 278.015 561.229 278.015ZM553.047 273.327H560.888C564.496 273.327 567.486 272.631 569.858 271.239C572.23 269.847 573.999 267.866 575.164 265.295C576.328 262.724 576.911 259.663 576.911 256.111C576.911 252.589 576.335 249.556 575.185 247.013C574.034 244.457 572.316 242.496 570.029 241.133C567.742 239.755 564.894 239.066 561.485 239.066H553.047V273.327Z" fill="black"/>
<path d="M643.524 234.379H648.808V263.271C648.808 266.254 648.105 268.917 646.699 271.261C645.307 273.59 643.34 275.43 640.797 276.779C638.254 278.114 635.272 278.782 631.848 278.782C628.425 278.782 625.442 278.114 622.899 276.779C620.357 275.43 618.382 273.59 616.976 271.261C615.584 268.917 614.888 266.254 614.888 263.271V234.379H620.172V262.844C620.172 264.975 620.641 266.871 621.578 268.533C622.516 270.181 623.851 271.481 625.584 272.432C627.331 273.37 629.419 273.839 631.848 273.839C634.277 273.839 636.365 273.37 638.112 272.432C639.86 271.481 641.195 270.181 642.118 268.533C643.056 266.871 643.524 264.975 643.524 262.844V234.379Z" fill="black"/>
<path d="M683.361 278.015V234.379H688.645V273.327H708.929V278.015H683.361Z" fill="black"/>
<path d="M741.111 278.015V234.379H767.446V239.066H746.395V253.81H766.082V258.498H746.395V273.327H767.787V278.015H741.111Z" fill="black"/>
<path d="M803.953 278.356C802.902 278.356 802 277.979 801.247 277.227C800.494 276.474 800.118 275.572 800.118 274.521C800.118 273.469 800.494 272.567 801.247 271.815C802 271.062 802.902 270.685 803.953 270.685C805.004 270.685 805.906 271.062 806.659 271.815C807.412 272.567 807.788 273.469 807.788 274.521C807.788 275.217 807.611 275.856 807.256 276.438C806.915 277.021 806.453 277.489 805.871 277.844C805.302 278.185 804.663 278.356 803.953 278.356Z" fill="black"/>
<path d="M414.147 363.015H400.681V319.379H414.743C418.976 319.379 422.599 320.252 425.61 321.999C428.621 323.732 430.93 326.225 432.535 329.478C434.14 332.717 434.942 336.594 434.942 341.111C434.942 345.657 434.133 349.57 432.513 352.852C430.894 356.119 428.536 358.633 425.439 360.394C422.343 362.141 418.579 363.015 414.147 363.015ZM405.965 358.327H413.806C417.414 358.327 420.404 357.631 422.776 356.239C425.148 354.847 426.917 352.866 428.082 350.295C429.246 347.724 429.829 344.663 429.829 341.111C429.829 337.589 429.253 334.556 428.103 332.013C426.952 329.457 425.234 327.496 422.947 326.133C420.66 324.755 417.812 324.066 414.403 324.066H405.965V358.327Z" fill="black"/>
<path d="M467.806 363.015V319.379H494.141V324.066H473.09V338.81H492.778V343.498H473.09V358.327H494.482V363.015H467.806Z" fill="black"/>
<path d="M529.455 319.379L542.41 356.111H542.921L555.876 319.379H561.415L545.393 363.015H539.938L523.915 319.379H529.455Z" fill="black"/>
<path d="M589.394 363.356C588.343 363.356 587.441 362.979 586.688 362.227C585.936 361.474 585.559 360.572 585.559 359.521C585.559 358.469 585.936 357.567 586.688 356.815C587.441 356.062 588.343 355.685 589.394 355.685C590.446 355.685 591.348 356.062 592.1 356.815C592.853 357.567 593.23 358.469 593.23 359.521C593.23 360.217 593.052 360.856 592.697 361.438C592.356 362.021 591.894 362.489 591.312 362.844C590.744 363.185 590.105 363.356 589.394 363.356Z" fill="black"/>
<path d="M400.681 448.015V404.379H415.937C418.976 404.379 421.484 404.904 423.458 405.955C425.432 406.992 426.903 408.391 427.868 410.153C428.834 411.9 429.317 413.839 429.317 415.969C429.317 417.844 428.984 419.393 428.316 420.614C427.663 421.836 426.796 422.802 425.716 423.512C424.651 424.222 423.493 424.748 422.243 425.089V425.515C423.579 425.6 424.921 426.069 426.27 426.921C427.62 427.773 428.749 428.995 429.658 430.586C430.567 432.177 431.022 434.123 431.022 436.424C431.022 438.611 430.525 440.579 429.53 442.326C428.536 444.073 426.966 445.458 424.822 446.481C422.677 447.504 419.886 448.015 416.448 448.015H400.681ZM405.965 443.327H416.448C419.9 443.327 422.35 442.66 423.799 441.325C425.262 439.975 425.993 438.342 425.993 436.424C425.993 434.947 425.617 433.583 424.864 432.333C424.111 431.069 423.039 430.06 421.647 429.307C420.255 428.54 418.607 428.157 416.704 428.157H405.965V443.327ZM405.965 423.555H415.766C417.357 423.555 418.792 423.242 420.07 422.617C421.363 421.992 422.386 421.111 423.138 419.975C423.905 418.839 424.289 417.504 424.289 415.969C424.289 414.052 423.621 412.425 422.286 411.09C420.951 409.741 418.834 409.066 415.937 409.066H405.965V423.555Z" fill="black"/>
<path d="M463.704 448.015V404.379H478.449C481.858 404.379 484.656 404.961 486.844 406.126C489.031 407.276 490.65 408.86 491.702 410.877C492.753 412.894 493.278 415.188 493.278 417.759C493.278 420.33 492.753 422.61 491.702 424.599C490.65 426.587 489.038 428.15 486.865 429.286C484.692 430.408 481.915 430.969 478.534 430.969H466.602V426.197H478.363C480.693 426.197 482.568 425.856 483.988 425.174C485.423 424.492 486.46 423.526 487.099 422.276C487.753 421.012 488.079 419.506 488.079 417.759C488.079 416.012 487.753 414.485 487.099 413.178C486.446 411.871 485.402 410.863 483.967 410.153C482.533 409.428 480.636 409.066 478.278 409.066H468.988V448.015H463.704ZM484.244 428.413L494.983 448.015H488.846L478.278 428.413H484.244Z" fill="black"/>
</svg>
