<svg width="861" height="682" viewBox="0 0 861 682" fill="none" xmlns="http://www.w3.org/2000/svg">
<rect width="859.809" height="681.543" transform="translate(0.588135 0.286499)" fill="black"/>
<path d="M383.397 121.785L330.722 172.2L327.956 169.31L380.631 118.895L383.397 121.785Z" fill="white"/>
<path d="M216.378 48.2865V121.2H212.378V48.2865L216.378 48.2865Z" fill="white"/>
<path d="M51.5371 115.742L100.799 169.497L97.8503 172.2L48.5881 118.445L51.5371 115.742Z" fill="white"/>
<path d="M204.392 172.808C177.859 175.475 152.259 188.408 134.526 207.875C115.592 228.541 105.992 254.141 105.992 283.875C105.992 306.808 111.992 324.808 129.459 354.941C141.992 376.675 152.126 396.275 156.259 407.208C164.392 428.941 168.259 456.941 165.992 478.808C163.992 497.475 164.526 496.675 155.059 496.675C145.459 496.675 139.326 499.341 136.126 504.941C131.192 513.075 134.259 525.875 141.992 530.008C144.392 531.341 144.392 531.608 141.326 537.075C139.459 540.141 137.992 544.008 137.992 545.741C137.992 550.008 141.326 555.875 145.459 559.208L149.059 562.008L146.392 565.075C139.592 572.541 138.526 582.008 143.992 588.541C147.592 592.675 151.192 594.275 163.726 596.675L171.326 598.141V605.208C171.326 614.541 176.259 624.541 183.592 629.475C188.126 632.675 190.792 633.341 198.659 633.741C210.393 634.408 217.326 631.341 223.192 623.208C227.326 617.608 230.392 606.941 229.192 602.408C228.526 599.875 229.326 599.741 241.059 598.808C260.259 597.475 268.659 593.741 273.592 584.141C276.259 579.075 275.059 570.675 271.193 566.541L268.126 563.341L271.726 559.608C280.126 550.941 281.059 540.008 274.126 533.075L270.393 529.208L272.792 524.675C275.992 518.808 275.992 509.608 272.792 502.541C269.059 494.275 265.859 492.675 253.059 492.675H242.126L241.193 486.541C239.059 472.008 243.059 455.075 252.259 440.008C254.926 435.608 263.859 423.475 272.126 413.208C311.059 364.408 325.993 329.608 325.993 287.208C325.993 252.275 315.193 225.741 291.859 203.208C267.593 179.875 237.459 169.475 204.392 172.808ZM247.726 181.741C278.792 192.275 305.726 218.408 315.326 247.341C327.592 283.741 322.393 324.408 300.259 364.941C292.926 378.408 283.726 391.341 265.993 413.475C250.793 432.408 243.326 444.541 239.193 457.341C236.259 466.675 235.059 482.008 237.059 488.808C237.859 492.008 237.592 492.408 232.926 493.208C230.259 493.608 221.592 494.008 213.859 494.008H199.592L201.326 484.808C205.459 463.741 207.726 440.008 206.792 427.875C204.926 401.208 197.859 383.741 179.859 362.008C165.992 345.075 160.659 334.808 160.659 325.075C160.659 313.208 164.792 306.408 174.659 301.875C179.859 299.475 188.659 298.541 190.392 300.141C190.792 300.541 190.126 303.741 188.792 307.208C181.726 325.208 185.859 340.675 197.592 340.675C203.459 340.675 208.526 337.208 210.792 331.741C214.659 322.808 212.392 313.075 204.392 304.008L198.792 297.741L202.126 295.208C209.459 289.608 220.259 290.408 227.993 297.075L233.059 301.475L230.792 305.741C227.726 311.608 223.326 329.208 223.326 335.341C223.326 345.208 232.926 351.075 238.526 344.808C242.393 340.541 244.126 326.141 242.126 315.608C239.326 301.208 239.459 300.675 244.659 297.741C247.992 295.875 251.059 295.341 255.059 295.741C266.526 296.941 270.126 304.008 271.459 327.875C272.393 344.008 273.859 349.608 276.393 346.675C277.059 345.875 277.059 337.741 276.526 328.408C275.193 303.075 269.592 293.208 255.592 290.541C252.126 289.875 249.326 290.541 243.326 293.741L235.459 297.741L233.059 295.075C229.859 291.475 218.259 286.008 213.993 286.141C209.059 286.275 202.659 288.941 198.392 292.675C195.192 295.475 193.592 295.875 186.392 295.475C167.326 294.541 153.326 309.741 155.859 328.275C157.192 338.275 162.126 347.075 175.192 363.341C195.459 388.408 200.393 400.941 201.592 430.008C202.259 447.741 200.659 465.208 196.259 486.675L194.659 494.675L168.526 495.475L169.592 488.408C171.459 475.741 170.659 444.941 168.126 432.675C163.326 409.208 155.859 391.475 138.659 362.008C113.992 319.875 107.592 298.541 111.059 270.941C117.192 221.875 150.392 187.208 200.659 177.475C202.526 177.208 211.192 177.075 219.993 177.341C233.592 177.608 237.726 178.275 247.726 181.741ZM201.859 308.008C204.126 310.675 206.259 314.408 206.792 316.408C207.192 318.408 207.726 320.675 207.993 321.608C208.926 324.675 205.859 332.675 202.926 334.675C199.059 337.475 195.859 337.208 192.526 333.875C190.126 331.475 189.726 329.875 190.259 322.141C190.792 313.341 194.126 303.341 196.392 303.341C197.192 303.341 199.592 305.475 201.859 308.008ZM237.459 312.941C238.659 318.941 238.393 334.275 236.792 338.408C235.192 342.541 233.592 343.608 230.792 342.541C227.459 341.208 227.059 336.675 229.326 325.475C232.793 309.075 235.592 304.675 237.459 312.941ZM265.859 500.141C272.659 508.675 272.659 518.941 265.859 526.675C261.592 531.475 261.726 534.008 266.126 534.008C270.526 534.008 273.993 538.808 273.993 544.808C273.993 549.341 273.193 551.208 269.059 555.341C266.259 558.008 262.792 560.808 261.459 561.608C258.393 563.341 259.459 567.341 263.059 567.341C266.926 567.341 270.526 572.275 270.526 577.341C270.526 583.475 264.926 589.208 256.126 592.275C245.726 595.741 182.659 595.741 164.259 592.141C152.926 590.008 150.926 589.208 147.859 585.608C145.059 582.275 144.526 580.541 145.192 576.808C145.992 571.208 151.726 564.941 157.326 563.608C162.259 562.275 162.659 558.675 157.992 558.541C151.459 558.408 150.259 558.008 146.792 554.541C139.992 547.608 143.592 535.741 153.192 533.208C157.726 532.141 157.726 528.675 153.326 528.675C148.792 528.675 142.659 525.475 140.126 521.741C135.192 514.808 139.059 504.141 147.059 502.141C149.726 501.475 172.659 500.141 197.993 499.341C223.326 498.408 244.259 497.475 244.526 497.208C244.792 496.941 249.193 496.675 254.126 496.675C262.259 496.675 263.459 497.075 265.859 500.141ZM224.659 605.475C224.659 612.941 220.792 620.808 214.659 625.475C205.192 632.675 188.392 630.675 181.326 621.475C177.459 616.408 174.659 606.408 175.726 601.875L176.526 598.675L224.659 599.475V605.475Z" fill="white"/>
<path d="M154.813 528.977L169.456 529.686L230.508 530.748L248.694 530.985L263.692 530.158L263.928 533.465L176.896 532.166L154.695 532.402L154.813 528.977Z" fill="white"/>
<path d="M159.384 558.658L173.295 560.059L227.937 562.261L245.25 562.761L259.861 562.561L261.062 566.864L178.599 562.561L159.92 562.446L159.384 558.658Z" fill="white"/>
<path d="M400.681 233.922H406.988L421.817 270.143H422.329L437.158 233.922H443.465V277.558H438.522V244.405H438.096L424.459 277.558H419.687L406.05 244.405H405.624V277.558H400.681V233.922Z" fill="white"/>
<path d="M514.878 255.74C514.878 260.342 514.047 264.319 512.385 267.672C510.723 271.024 508.443 273.609 505.546 275.427C502.648 277.246 499.338 278.155 495.617 278.155C491.895 278.155 488.585 277.246 485.688 275.427C482.79 273.609 480.51 271.024 478.848 267.672C477.186 264.319 476.355 260.342 476.355 255.74C476.355 251.138 477.186 247.16 478.848 243.808C480.51 240.456 482.79 237.871 485.688 236.052C488.585 234.234 491.895 233.325 495.617 233.325C499.338 233.325 502.648 234.234 505.546 236.052C508.443 237.871 510.723 240.456 512.385 243.808C514.047 247.16 514.878 251.138 514.878 255.74ZM509.764 255.74C509.764 251.962 509.132 248.773 507.868 246.173C506.618 243.574 504.921 241.606 502.776 240.271C500.645 238.936 498.259 238.268 495.617 238.268C492.975 238.268 490.581 238.936 488.436 240.271C486.306 241.606 484.608 243.574 483.344 246.173C482.094 248.773 481.469 251.962 481.469 255.74C481.469 259.518 482.094 262.707 483.344 265.307C484.608 267.906 486.306 269.873 488.436 271.209C490.581 272.544 492.975 273.211 495.617 273.211C498.259 273.211 500.645 272.544 502.776 271.209C504.921 269.873 506.618 267.906 507.868 265.307C509.132 262.707 509.764 259.518 509.764 255.74Z" fill="white"/>
<path d="M561.229 277.558H547.763V233.922H561.826C566.058 233.922 569.681 234.795 572.692 236.542C575.703 238.275 578.012 240.768 579.617 244.021C581.222 247.26 582.024 251.138 582.024 255.655C582.024 260.2 581.215 264.113 579.595 267.395C577.976 270.662 575.618 273.176 572.522 274.937C569.425 276.685 565.661 277.558 561.229 277.558ZM553.047 272.871H560.888C564.496 272.871 567.486 272.175 569.858 270.783C572.23 269.39 573.999 267.409 575.164 264.838C576.328 262.267 576.911 259.206 576.911 255.655C576.911 252.132 576.335 249.099 575.185 246.557C574.034 244 572.316 242.04 570.029 240.676C567.742 239.298 564.894 238.609 561.485 238.609H553.047V272.871Z" fill="white"/>
<path d="M643.524 233.922H648.808V262.814C648.808 265.797 648.105 268.46 646.699 270.804C645.307 273.133 643.34 274.973 640.797 276.322C638.254 277.658 635.272 278.325 631.848 278.325C628.425 278.325 625.442 277.658 622.899 276.322C620.357 274.973 618.382 273.133 616.976 270.804C615.584 268.46 614.888 265.797 614.888 262.814V233.922H620.172V262.388C620.172 264.518 620.641 266.415 621.578 268.077C622.516 269.724 623.851 271.024 625.584 271.976C627.331 272.913 629.419 273.382 631.848 273.382C634.277 273.382 636.365 272.913 638.112 271.976C639.86 271.024 641.195 269.724 642.118 268.077C643.056 266.415 643.524 264.518 643.524 262.388V233.922Z" fill="white"/>
<path d="M683.361 277.558V233.922H688.645V272.871H708.929V277.558H683.361Z" fill="white"/>
<path d="M741.111 277.558V233.922H767.446V238.609H746.395V253.354H766.082V258.041H746.395V272.871H767.787V277.558H741.111Z" fill="white"/>
<path d="M803.953 277.899C802.902 277.899 802 277.523 801.247 276.77C800.494 276.017 800.118 275.115 800.118 274.064C800.118 273.013 800.494 272.111 801.247 271.358C802 270.605 802.902 270.229 803.953 270.229C805.004 270.229 805.906 270.605 806.659 271.358C807.412 272.111 807.788 273.013 807.788 274.064C807.788 274.76 807.611 275.399 807.256 275.981C806.915 276.564 806.453 277.033 805.871 277.388C805.302 277.729 804.663 277.899 803.953 277.899Z" fill="white"/>
<path d="M414.147 362.558H400.681V318.922H414.743C418.976 318.922 422.599 319.795 425.61 321.542C428.621 323.275 430.93 325.768 432.535 329.021C434.14 332.26 434.942 336.138 434.942 340.655C434.942 345.2 434.133 349.113 432.513 352.395C430.894 355.662 428.536 358.176 425.439 359.937C422.343 361.685 418.579 362.558 414.147 362.558ZM405.965 357.871H413.806C417.414 357.871 420.404 357.175 422.776 355.783C425.148 354.39 426.917 352.409 428.082 349.838C429.246 347.267 429.829 344.206 429.829 340.655C429.829 337.132 429.253 334.099 428.103 331.557C426.952 329 425.234 327.04 422.947 325.676C420.66 324.298 417.812 323.609 414.403 323.609H405.965V357.871Z" fill="white"/>
<path d="M467.806 362.558V318.922H494.141V323.609H473.09V338.354H492.778V343.041H473.09V357.871H494.482V362.558H467.806Z" fill="white"/>
<path d="M529.455 318.922L542.41 355.655H542.921L555.876 318.922H561.415L545.393 362.558H539.938L523.915 318.922H529.455Z" fill="white"/>
<path d="M589.394 362.899C588.343 362.899 587.441 362.523 586.688 361.77C585.936 361.017 585.559 360.115 585.559 359.064C585.559 358.013 585.936 357.111 586.688 356.358C587.441 355.605 588.343 355.229 589.394 355.229C590.446 355.229 591.348 355.605 592.1 356.358C592.853 357.111 593.23 358.013 593.23 359.064C593.23 359.76 593.052 360.399 592.697 360.981C592.356 361.564 591.894 362.033 591.312 362.388C590.744 362.729 590.105 362.899 589.394 362.899Z" fill="white"/>
<path d="M400.681 447.558V403.922H415.937C418.976 403.922 421.484 404.447 423.458 405.498C425.432 406.535 426.903 407.935 427.868 409.696C428.834 411.443 429.317 413.382 429.317 415.513C429.317 417.388 428.984 418.936 428.316 420.158C427.663 421.379 426.796 422.345 425.716 423.055C424.651 423.765 423.493 424.291 422.243 424.632V425.058C423.579 425.143 424.921 425.612 426.27 426.464C427.62 427.317 428.749 428.538 429.658 430.129C430.567 431.72 431.022 433.666 431.022 435.967C431.022 438.155 430.525 440.122 429.53 441.869C428.536 443.616 426.966 445.001 424.822 446.024C422.677 447.047 419.886 447.558 416.448 447.558H400.681ZM405.965 442.871H416.448C419.9 442.871 422.35 442.203 423.799 440.868C425.262 439.518 425.993 437.885 425.993 435.967C425.993 434.49 425.617 433.126 424.864 431.876C424.111 430.612 423.039 429.604 421.647 428.851C420.255 428.084 418.607 427.7 416.704 427.7H405.965V442.871ZM405.965 423.098H415.766C417.357 423.098 418.792 422.785 420.07 422.16C421.363 421.535 422.386 420.655 423.138 419.518C423.905 418.382 424.289 417.047 424.289 415.513C424.289 413.595 423.621 411.969 422.286 410.633C420.951 409.284 418.834 408.609 415.937 408.609H405.965V423.098Z" fill="white"/>
<path d="M463.704 447.558V403.922H478.449C481.858 403.922 484.656 404.504 486.844 405.669C489.031 406.819 490.65 408.403 491.702 410.42C492.753 412.437 493.278 414.731 493.278 417.302C493.278 419.873 492.753 422.153 491.702 424.142C490.65 426.131 489.038 427.693 486.865 428.829C484.692 429.952 481.915 430.513 478.534 430.513H466.602V425.74H478.363C480.693 425.74 482.568 425.399 483.988 424.717C485.423 424.035 486.46 423.069 487.099 421.819C487.753 420.555 488.079 419.05 488.079 417.302C488.079 415.555 487.753 414.028 487.099 412.721C486.446 411.415 485.402 410.406 483.967 409.696C482.533 408.971 480.636 408.609 478.278 408.609H468.988V447.558H463.704ZM484.244 427.956L494.983 447.558H488.846L478.278 427.956H484.244Z" fill="white"/>
</svg>
