<svg width="314" height="57" viewBox="0 0 314 57" fill="none" xmlns="http://www.w3.org/2000/svg">
<path d="M7.64648 55.957C6.12305 55.9961 4.87305 55.7227 3.89648 55.1367C2.88086 54.5508 2.09961 53.6914 1.55273 52.5586C0.966797 51.4648 0.595703 50.1172 0.439453 48.5156C0.283203 46.9531 0.283203 45.2344 0.439453 43.3594C0.634766 41.9141 0.986328 40.4102 1.49414 38.8477C1.92383 37.5195 2.58789 36.0547 3.48633 34.4531C4.3457 32.8516 5.51758 31.2891 7.00195 29.7656C7.31445 29.8438 7.56836 29.9414 7.76367 30.0586C7.95898 30.1367 8.11523 30.2344 8.23242 30.3516C8.34961 30.5078 8.42773 30.6445 8.4668 30.7617C8.54492 31.1914 8.42773 31.6797 8.11523 32.2266C7.80273 32.7734 7.49023 33.3594 7.17773 33.9844C6.31836 35.7812 5.67383 37.4805 5.24414 39.082C4.81445 40.6836 4.54102 42.168 4.42383 43.5352C4.3457 44.707 4.36523 45.7617 4.48242 46.6992C4.56055 47.6758 4.69727 48.4961 4.89258 49.1602C5.08789 49.8633 5.30273 50.3906 5.53711 50.7422C5.77148 51.1328 5.98633 51.3281 6.18164 51.3281C6.37695 51.3281 6.57227 51.1914 6.76758 50.918C7.00195 50.6445 7.2168 50.3125 7.41211 49.9219C7.64648 49.5312 7.91992 48.9258 8.23242 48.1055C8.54492 47.3242 8.87695 46.4062 9.22852 45.3516C9.58008 44.2969 9.91211 43.1641 10.2246 41.9531C10.5762 40.7031 10.8887 39.4531 11.1621 38.2031C11.709 35.7031 12.2949 32.8906 12.9199 29.7656C13.5449 26.6016 14.4629 23.3008 15.6738 19.8633C16.0645 18.418 16.5527 16.8359 17.1387 15.1172C17.6074 13.6328 18.1934 11.9141 18.8965 9.96094C19.6387 7.96875 20.4785 5.82031 21.416 3.51562C21.416 3.32031 21.5723 3.14453 21.8848 2.98828C22.2363 2.79297 22.627 2.59766 23.0566 2.40234C23.5254 2.20703 24.0527 2.01172 24.6387 1.81641C25.4199 1.54297 26.0254 1.38672 26.4551 1.34766C26.9238 1.30859 27.2754 1.36719 27.5098 1.52344C27.7441 1.67969 27.9004 1.89453 27.9785 2.16797C28.0566 2.40234 28.0957 2.67578 28.0957 2.98828C28.1738 4.27734 28.2129 5.48828 28.2129 6.62109C28.252 7.75391 28.291 8.75 28.3301 9.60938C28.3691 10.625 28.3887 11.543 28.3887 12.3633C28.4277 13.457 28.3691 14.9219 28.2129 16.7578C28.0566 18.5547 27.8809 20.4492 27.6855 22.4414C27.5293 24.4336 27.373 26.3867 27.2168 28.3008C27.0996 30.1758 27.0801 31.7383 27.1582 32.9883C27.1582 33.6523 27.1777 34.2773 27.2168 34.8633C27.2949 35.4102 27.373 35.957 27.4512 36.5039C27.959 35.0977 28.5254 33.6328 29.1504 32.1094C29.7754 30.5469 30.4004 29.0625 31.0254 27.6562C31.6504 26.2109 32.2363 24.8828 32.7832 23.6719C33.3301 22.4219 33.7598 21.3867 34.0723 20.5664C34.541 19.4727 35.166 18.0859 35.9473 16.4062C36.7285 14.7266 37.5098 13.0469 38.291 11.3672C39.1113 9.6875 39.8535 8.14453 40.5176 6.73828C41.2207 5.33203 41.7285 4.35547 42.041 3.80859C42.2754 3.41797 42.666 3.06641 43.2129 2.75391C43.7988 2.44141 44.4043 2.16797 45.0293 1.93359C45.6934 1.69922 46.2988 1.54297 46.8457 1.46484C47.4316 1.34766 47.8223 1.32812 48.0176 1.40625C48.5254 1.52344 48.877 1.67969 49.0723 1.875C49.3066 2.07031 49.4434 2.20703 49.4824 2.28516C49.5605 2.44141 49.6191 2.71484 49.6582 3.10547C49.6973 3.45703 49.6777 4.02344 49.5996 4.80469C49.5215 5.74219 49.2871 7.16797 48.8965 9.08203C48.5449 10.9961 48.0957 13.1836 47.5488 15.6445C47.041 18.0664 46.4746 20.6641 45.8496 23.4375C45.2637 26.2109 44.6973 28.9453 44.1504 31.6406C43.6035 34.2969 43.1152 36.7969 42.6855 39.1406C42.2949 41.4844 42.041 43.457 41.9238 45.0586C41.8457 46.8555 41.9629 48.4375 42.2754 49.8047C42.3926 50.3906 42.5684 50.957 42.8027 51.5039C43.0371 52.0508 43.3496 52.5195 43.7402 52.9102C44.1309 53.3398 44.5996 53.6523 45.1465 53.8477C45.6934 54.043 46.3379 54.1016 47.0801 54.0234C46.1035 54.6875 45.1465 55.1758 44.209 55.4883C43.2715 55.8008 42.3535 55.957 41.4551 55.957C40.4785 55.9961 39.6191 55.8398 38.877 55.4883C38.1348 55.1758 37.5098 54.707 37.002 54.082C36.4941 53.4961 36.123 52.7734 35.8887 51.9141C35.6543 51.0938 35.5762 50.1758 35.6543 49.1602C35.7324 48.2227 35.9863 46.6797 36.416 44.5312C36.8457 42.3828 37.3535 39.9609 37.9395 37.2656C38.5645 34.5312 39.2285 31.6992 39.9316 28.7695C40.6738 25.8008 41.3574 23.0273 41.9824 20.4492C42.6465 17.832 43.2129 15.5859 43.6816 13.7109C44.1504 11.8359 44.4434 10.6055 44.5605 10.0195C44.6387 9.55078 44.6973 9.12109 44.7363 8.73047C44.8145 8.30078 44.8926 7.92969 44.9707 7.61719C44.5801 8.39844 44.0918 9.33594 43.5059 10.4297C42.959 11.5234 42.373 12.6953 41.748 13.9453C41.123 15.1953 40.4785 16.5039 39.8145 17.8711C39.1895 19.1992 38.584 20.4883 37.998 21.7383C37.0215 23.7695 36.0645 25.8594 35.127 28.0078C34.1895 30.1172 33.3496 32.1289 32.6074 34.043C31.8652 35.957 31.2402 37.6758 30.7324 39.1992C30.2637 40.7227 29.9902 41.8945 29.9121 42.7148V43.5352C29.9121 43.7695 29.9121 44.043 29.9121 44.3555C29.9512 44.668 30.0098 44.9609 30.0879 45.2344L27.7441 47.0508C27.3926 47.168 27.0801 47.2656 26.8066 47.3438C26.5723 47.4219 26.3379 47.4609 26.1035 47.4609C25.2051 47.4609 24.5215 46.9922 24.0527 46.0547C23.584 45.1953 23.1543 43.5156 22.7637 41.0156C22.373 38.5156 22.2559 35.4492 22.4121 31.8164C22.4902 30.0195 22.6074 28.2031 22.7637 26.3672C22.959 24.5312 23.1348 22.7734 23.291 21.0938C23.4863 19.4141 23.6621 17.8516 23.8184 16.4062C23.9746 14.9219 24.0527 13.6523 24.0527 12.5977C24.0918 11.8164 24.0723 11.1133 23.9941 10.4883C23.916 9.82422 23.8379 9.21875 23.7598 8.67188C23.4082 9.57031 23.0176 10.8008 22.5879 12.3633C22.1582 13.8867 21.709 15.5859 21.2402 17.4609C20.7715 19.3359 20.2832 21.3086 19.7754 23.3789C19.3066 25.4492 18.8379 27.4414 18.3691 29.3555C17.9395 31.2695 17.5293 33.0469 17.1387 34.6875C16.748 36.2891 16.4355 37.5781 16.2012 38.5547C15.8105 40.1172 15.4199 41.8945 15.0293 43.8867C14.6387 45.8789 14.1504 47.7539 13.5645 49.5117C12.9785 51.3086 12.2168 52.8125 11.2793 54.0234C10.3418 55.2734 9.13086 55.918 7.64648 55.957ZM80.3613 33.3398C79.8145 34.1211 79.1113 35.0977 78.252 36.2695C77.3926 37.4023 76.4941 38.5547 75.5566 39.7266C74.6582 40.8594 73.7598 41.9141 72.8613 42.8906C72.002 43.8281 71.2793 44.4922 70.6934 44.8828C70.3027 45.1172 69.8535 45.3125 69.3457 45.4688C68.8379 45.625 68.3105 45.7227 67.7637 45.7617C67.2559 45.8008 66.7676 45.7617 66.2988 45.6445C65.8301 45.5664 65.4199 45.4102 65.0684 45.1758C64.7168 44.9023 64.4238 44.5117 64.1895 44.0039C63.9941 43.5742 63.7988 43.0078 63.6035 42.3047C63.4473 41.6016 63.3887 40.7227 63.4277 39.668C62.4902 41.2305 61.4551 42.4414 60.3223 43.3008C59.1895 44.1211 58.1152 44.7266 57.0996 45.1172C55.9277 45.5469 54.7559 45.8008 53.584 45.8789C53.0371 45.8789 52.4512 45.6836 51.8262 45.293C51.2012 44.9414 50.6738 44.375 50.2441 43.5938C49.8145 42.7734 49.541 41.7383 49.4238 40.4883C49.3066 39.1992 49.4629 37.6758 49.8926 35.918C50.4395 33.5352 51.2988 31.3672 52.4707 29.4141C53.6816 27.4609 54.9902 25.8008 56.3965 24.4336C57.8027 23.0273 59.1895 21.9727 60.5566 21.2695C61.9238 20.5664 63.0566 20.2539 63.9551 20.332C65.0098 20.5273 65.8691 20.8398 66.5332 21.2695C67.0801 21.6602 67.4316 22.2461 67.5879 23.0273C67.7832 23.7695 67.4707 24.7656 66.6504 26.0156C67.1973 25.8984 67.6465 25.8203 67.998 25.7812C68.3887 25.7422 68.6816 25.7227 68.877 25.7227C69.1113 25.7227 69.2676 25.7422 69.3457 25.7812C69.3848 25.8594 69.4043 26.0352 69.4043 26.3086C69.4043 26.543 69.3457 26.9922 69.2285 27.6562C69.1113 28.3203 68.9355 29.2188 68.7012 30.3516C68.4668 31.4844 68.1543 32.9492 67.7637 34.7461C67.6855 35.0977 67.6074 35.4297 67.5293 35.7422C67.4902 36.0156 67.4316 36.3086 67.3535 36.6211C67.3145 36.8945 67.2559 37.2266 67.1777 37.6172C67.0996 38.0078 67.002 38.4961 66.8848 39.082C66.8457 39.4336 66.8262 39.8242 66.8262 40.2539C66.8652 40.6445 66.9434 41.0156 67.0605 41.3672C67.1777 41.7188 67.3535 42.0117 67.5879 42.2461C67.8613 42.4414 68.2324 42.5391 68.7012 42.5391C69.0918 42.5391 69.5996 42.3047 70.2246 41.8359C70.8496 41.3281 71.5137 40.7031 72.2168 39.9609C72.9199 39.1797 73.6426 38.3398 74.3848 37.4414C75.166 36.5039 75.8887 35.6055 76.5527 34.7461C77.2168 33.8867 77.8027 33.125 78.3105 32.4609C78.8574 31.7969 79.248 31.3086 79.4824 30.9961C79.7949 30.6445 80.1074 30.4492 80.4199 30.4102C80.7324 30.332 80.9668 30.4102 81.123 30.6445C81.2793 30.8789 81.2988 31.2305 81.1816 31.6992C81.1035 32.168 80.8301 32.7148 80.3613 33.3398ZM63.1934 35.918C63.3887 35.1367 63.623 34.2188 63.8965 33.1641C64.1699 32.1094 64.4043 31.0938 64.5996 30.1172C64.7949 29.1406 64.9316 28.3398 65.0098 27.7148C65.127 27.0508 65.1074 26.7383 64.9512 26.7773C64.7559 26.8164 64.541 26.875 64.3066 26.9531C64.1113 27.0312 63.8574 27.0898 63.5449 27.1289C63.2324 27.168 62.9199 27.2266 62.6074 27.3047C62.9199 26.6797 63.0957 26.1719 63.1348 25.7812C63.2129 25.3516 63.2324 25.0195 63.1934 24.7852C63.1543 24.5117 63.0762 24.2969 62.959 24.1406C62.5293 23.7891 61.7676 24.082 60.6738 25.0195C59.6191 25.918 58.3887 27.5977 56.9824 30.0586C56.3965 31.0742 55.9277 32.168 55.5762 33.3398C55.2246 34.4727 54.9707 35.5469 54.8145 36.5625C54.6973 37.5781 54.6777 38.4766 54.7559 39.2578C54.834 40 54.9902 40.4883 55.2246 40.7227C55.6543 41.1523 56.1426 41.3672 56.6895 41.3672C57.2363 41.3281 57.7832 41.1719 58.3301 40.8984C58.916 40.5859 59.4824 40.1953 60.0293 39.7266C60.6152 39.2578 61.123 38.7695 61.5527 38.2617C62.0215 37.7539 62.3926 37.2852 62.666 36.8555C62.9785 36.4258 63.1543 36.1133 63.1934 35.918ZM74.209 44.707C73.9355 45.1367 73.6426 45.4102 73.3301 45.5273C72.9785 45.6836 72.6855 45.7031 72.4512 45.5859C72.1777 45.5078 72.002 45.3125 71.9238 45C71.8457 44.6875 71.9238 44.2969 72.1582 43.8281C72.2754 43.5938 72.5488 43.0664 72.9785 42.2461C73.3691 41.4258 73.8574 40.4492 74.4434 39.3164C74.9902 38.1445 75.5957 36.8945 76.2598 35.5664C76.9238 34.1992 77.5488 32.9102 78.1348 31.6992C78.7598 30.4883 79.3262 29.4141 79.834 28.4766C80.3418 27.5 80.7129 26.7969 80.9473 26.3672C80.5176 25.9766 80.2246 25.7031 80.0684 25.5469C79.9121 25.3516 79.7949 24.9609 79.7168 24.375C79.6387 23.8672 79.7559 23.2031 80.0684 22.3828C80.3809 21.5625 80.791 20.7812 81.2988 20.0391C81.8066 19.2578 82.373 18.5938 82.998 18.0469C83.623 17.5 84.2285 17.2266 84.8145 17.2266C85.9082 17.2266 86.6699 17.5781 87.0996 18.2812C87.5684 18.9844 87.8418 19.707 87.9199 20.4492C87.998 20.957 87.959 21.6016 87.8027 22.3828C87.6465 23.1641 87.3535 23.8672 86.9238 24.4922C87.041 24.5703 87.1973 24.668 87.3926 24.7852C87.5879 24.8633 87.9004 24.9023 88.3301 24.9023C88.9551 24.9023 89.3848 24.8633 89.6191 24.7852C89.8926 24.707 90.3027 24.668 90.8496 24.668C91.5137 24.668 92.0605 24.8438 92.4902 25.1953C92.9199 25.5078 93.2715 25.918 93.5449 26.4258C93.8184 26.8945 94.0137 27.4219 94.1309 28.0078C94.2871 28.5547 94.3848 29.0625 94.4238 29.5312C94.541 30.5078 94.2871 31.5234 93.6621 32.5781C93.0371 33.6328 92.2754 34.7852 91.377 36.0352C90.8301 36.8164 90.2832 37.6953 89.7363 38.6719C89.1895 39.6484 88.9551 40.5273 89.0332 41.3086C89.1113 41.8164 89.248 42.2266 89.4434 42.5391C89.6387 42.8516 90.1855 43.0078 91.084 43.0078C91.748 43.0078 92.4707 42.7734 93.252 42.3047C94.0723 41.7969 94.8926 41.1719 95.7129 40.4297C96.5723 39.6484 97.4121 38.8086 98.2324 37.9102C99.0527 36.9727 99.8145 36.0742 100.518 35.2148C101.221 34.3164 101.807 33.5156 102.275 32.8125C102.783 32.1094 103.154 31.6016 103.389 31.2891C103.584 30.9766 103.838 30.7617 104.15 30.6445C104.463 30.5273 104.736 30.5273 104.971 30.6445C105.205 30.7617 105.342 30.9961 105.381 31.3477C105.459 31.6992 105.322 32.168 104.971 32.7539C104.736 33.1445 104.326 33.7695 103.74 34.6289C103.193 35.4883 102.51 36.4453 101.689 37.5C100.908 38.5547 100.029 39.6484 99.0527 40.7812C98.0762 41.875 97.041 42.8906 95.9473 43.8281C94.8926 44.7266 93.8184 45.4688 92.7246 46.0547C91.6699 46.6406 90.6543 46.9336 89.6777 46.9336C88.6621 46.9336 87.8223 46.7383 87.1582 46.3477C86.4941 45.957 85.9473 45.4883 85.5176 44.9414C85.127 44.3555 84.834 43.7305 84.6387 43.0664C84.4824 42.3633 84.4238 41.7188 84.4629 41.1328C84.502 40.6641 84.6191 40.1758 84.8145 39.668C85.0488 39.1211 85.3027 38.5742 85.5762 38.0273C85.8887 37.4414 86.2012 36.875 86.5137 36.3281C86.8652 35.7422 87.1777 35.1758 87.4512 34.6289C88.1152 33.4961 88.6426 32.5391 89.0332 31.7578C89.4629 30.9375 89.6777 30.2539 89.6777 29.707C89.6777 29.3555 89.5996 29.043 89.4434 28.7695C89.2871 28.4961 89.0332 28.3594 88.6816 28.3594C88.4473 28.3594 88.2715 28.3789 88.1543 28.418C88.0762 28.418 87.9785 28.418 87.8613 28.418C87.7832 28.418 87.6465 28.4375 87.4512 28.4766C87.2949 28.4766 87.041 28.4766 86.6895 28.4766C86.1816 28.4766 85.752 28.3984 85.4004 28.2422C85.0488 28.0859 84.7168 27.9688 84.4043 27.8906C84.248 28.1641 83.8965 28.75 83.3496 29.6484C82.8027 30.5469 82.1582 31.6016 81.416 32.8125C80.7129 34.0234 79.9512 35.293 79.1309 36.6211C78.3496 37.9492 77.6074 39.1992 76.9043 40.3711C76.2012 41.5039 75.6152 42.4805 75.1465 43.3008C74.6387 44.082 74.3262 44.5508 74.209 44.707ZM113.701 10.4883C113.584 10.918 113.35 11.3477 112.998 11.7773C112.686 12.168 112.314 12.5 111.885 12.7734C111.494 13.0078 111.084 13.1641 110.654 13.2422C110.225 13.3203 109.873 13.2422 109.6 13.0078C108.779 12.3828 108.35 11.7188 108.311 11.0156C108.271 10.2734 108.447 9.58984 108.838 8.96484C109.229 8.30078 109.717 7.75391 110.303 7.32422C110.889 6.85547 111.396 6.58203 111.826 6.50391C112.256 6.42578 112.607 6.52344 112.881 6.79688C113.193 7.03125 113.428 7.36328 113.584 7.79297C113.74 8.18359 113.818 8.63281 113.818 9.14062C113.857 9.64844 113.818 10.0977 113.701 10.4883ZM105.615 22.9688C105.811 22.7344 106.182 22.5391 106.729 22.3828C107.275 22.2266 107.842 22.1094 108.428 22.0312C109.014 21.9141 109.541 21.8555 110.01 21.8555C110.518 21.8164 110.811 21.8164 110.889 21.8555C110.928 21.8945 110.83 22.3047 110.596 23.0859C110.361 23.8672 110.068 24.7852 109.717 25.8398C109.365 26.8945 108.994 27.9883 108.604 29.1211C108.213 30.2148 107.92 31.1133 107.725 31.8164C107.529 32.5195 107.295 33.3203 107.021 34.2188C106.748 35.0781 106.494 35.9375 106.26 36.7969C106.064 37.6172 105.928 38.3984 105.85 39.1406C105.771 39.8828 105.83 40.4492 106.025 40.8398C106.221 41.3086 106.436 41.6406 106.67 41.8359C106.904 41.9922 107.158 42.0703 107.432 42.0703C108.213 42.0703 109.189 41.6406 110.361 40.7812C111.572 39.9219 112.783 38.9062 113.994 37.7344C115.244 36.5234 116.396 35.3125 117.451 34.1016C118.506 32.8516 119.287 31.8555 119.795 31.1133C120.107 30.7227 120.42 30.4688 120.732 30.3516C121.084 30.2344 121.357 30.2539 121.553 30.4102C121.787 30.5664 121.904 30.8203 121.904 31.1719C121.943 31.5234 121.826 31.9336 121.553 32.4023C120.928 33.4961 120.01 34.8047 118.799 36.3281C117.588 37.8125 116.299 39.2578 114.932 40.6641C113.564 42.0312 112.217 43.2031 110.889 44.1797C109.6 45.1562 108.545 45.6641 107.725 45.7031C107.061 45.7422 106.396 45.625 105.732 45.3516C105.107 45.1172 104.521 44.7852 103.975 44.3555C103.467 43.8867 103.037 43.3594 102.686 42.7734C102.334 42.1484 102.139 41.5039 102.1 40.8398C101.982 39.8633 101.982 38.5352 102.1 36.8555C102.217 35.1367 102.432 33.3984 102.744 31.6406C103.057 29.8438 103.447 28.1445 103.916 26.543C104.424 24.9414 104.99 23.75 105.615 22.9688ZM147.334 33.3398C146.787 34.1211 146.084 35.0977 145.225 36.2695C144.365 37.4023 143.467 38.5547 142.529 39.7266C141.631 40.8594 140.732 41.9141 139.834 42.8906C138.975 43.8281 138.252 44.4922 137.666 44.8828C137.275 45.1172 136.826 45.3125 136.318 45.4688C135.811 45.625 135.283 45.7227 134.736 45.7617C134.229 45.8008 133.74 45.7617 133.271 45.6445C132.803 45.5664 132.393 45.4102 132.041 45.1758C131.689 44.9023 131.396 44.5117 131.162 44.0039C130.967 43.5742 130.771 43.0078 130.576 42.3047C130.42 41.6016 130.361 40.7227 130.4 39.668C129.463 41.2305 128.428 42.4414 127.295 43.3008C126.162 44.1211 125.088 44.7266 124.072 45.1172C122.9 45.5469 121.729 45.8008 120.557 45.8789C120.01 45.8789 119.424 45.6836 118.799 45.293C118.174 44.9414 117.646 44.375 117.217 43.5938C116.787 42.7734 116.514 41.7383 116.396 40.4883C116.279 39.1992 116.436 37.6758 116.865 35.918C117.412 33.5352 118.271 31.3672 119.443 29.4141C120.654 27.4609 121.963 25.8008 123.369 24.4336C124.775 23.0273 126.162 21.9727 127.529 21.2695C128.896 20.5664 130.029 20.2539 130.928 20.332C131.982 20.5273 132.842 20.8398 133.506 21.2695C134.053 21.6602 134.404 22.2461 134.561 23.0273C134.756 23.7695 134.443 24.7656 133.623 26.0156C134.17 25.8984 134.619 25.8203 134.971 25.7812C135.361 25.7422 135.654 25.7227 135.85 25.7227C136.084 25.7227 136.24 25.7422 136.318 25.7812C136.357 25.8594 136.377 26.0352 136.377 26.3086C136.377 26.543 136.318 26.9922 136.201 27.6562C136.084 28.3203 135.908 29.2188 135.674 30.3516C135.439 31.4844 135.127 32.9492 134.736 34.7461C134.658 35.0977 134.58 35.4297 134.502 35.7422C134.463 36.0156 134.404 36.3086 134.326 36.6211C134.287 36.8945 134.229 37.2266 134.15 37.6172C134.072 38.0078 133.975 38.4961 133.857 39.082C133.818 39.4336 133.799 39.8242 133.799 40.2539C133.838 40.6445 133.916 41.0156 134.033 41.3672C134.15 41.7188 134.326 42.0117 134.561 42.2461C134.834 42.4414 135.205 42.5391 135.674 42.5391C136.064 42.5391 136.572 42.3047 137.197 41.8359C137.822 41.3281 138.486 40.7031 139.189 39.9609C139.893 39.1797 140.615 38.3398 141.357 37.4414C142.139 36.5039 142.861 35.6055 143.525 34.7461C144.189 33.8867 144.775 33.125 145.283 32.4609C145.83 31.7969 146.221 31.3086 146.455 30.9961C146.768 30.6445 147.08 30.4492 147.393 30.4102C147.705 30.332 147.939 30.4102 148.096 30.6445C148.252 30.8789 148.271 31.2305 148.154 31.6992C148.076 32.168 147.803 32.7148 147.334 33.3398ZM130.166 35.918C130.361 35.1367 130.596 34.2188 130.869 33.1641C131.143 32.1094 131.377 31.0938 131.572 30.1172C131.768 29.1406 131.904 28.3398 131.982 27.7148C132.1 27.0508 132.08 26.7383 131.924 26.7773C131.729 26.8164 131.514 26.875 131.279 26.9531C131.084 27.0312 130.83 27.0898 130.518 27.1289C130.205 27.168 129.893 27.2266 129.58 27.3047C129.893 26.6797 130.068 26.1719 130.107 25.7812C130.186 25.3516 130.205 25.0195 130.166 24.7852C130.127 24.5117 130.049 24.2969 129.932 24.1406C129.502 23.7891 128.74 24.082 127.646 25.0195C126.592 25.918 125.361 27.5977 123.955 30.0586C123.369 31.0742 122.9 32.168 122.549 33.3398C122.197 34.4727 121.943 35.5469 121.787 36.5625C121.67 37.5781 121.65 38.4766 121.729 39.2578C121.807 40 121.963 40.4883 122.197 40.7227C122.627 41.1523 123.115 41.3672 123.662 41.3672C124.209 41.3281 124.756 41.1719 125.303 40.8984C125.889 40.5859 126.455 40.1953 127.002 39.7266C127.588 39.2578 128.096 38.7695 128.525 38.2617C128.994 37.7539 129.365 37.2852 129.639 36.8555C129.951 36.4258 130.127 36.1133 130.166 35.918ZM191.572 39.4922C191.338 42.1094 190.557 44.4531 189.229 46.5234C187.9 48.5938 186.201 50.332 184.131 51.7383C182.1 53.1836 179.795 54.2773 177.217 55.0195C174.639 55.7617 171.982 56.1328 169.248 56.1328C168.232 56.1328 167.275 56.0547 166.377 55.8984C165.518 55.7812 164.736 55.625 164.033 55.4297C163.33 55.2344 162.725 55.0391 162.217 54.8438C161.748 54.6875 161.416 54.5508 161.221 54.4336C160.869 54.2383 160.576 53.9844 160.342 53.6719C160.146 53.3984 160.029 52.9883 159.99 52.4414C159.951 52.1289 159.932 51.875 159.932 51.6797C159.932 51.5234 159.951 51.3477 159.99 51.1523C160.029 50.957 160.107 50.6836 160.225 50.332C160.303 50.0195 160.42 49.5703 160.576 48.9844C160.654 48.6328 160.947 47.5195 161.455 45.6445C162.002 43.8086 162.646 41.5625 163.389 38.9062C164.131 36.2109 164.932 33.3008 165.791 30.1758C166.689 27.0508 167.549 24.0234 168.369 21.0938C169.189 18.1641 169.932 15.5273 170.596 13.1836C171.26 10.8008 171.748 9.04297 172.061 7.91016C171.514 8.30078 170.967 8.71094 170.42 9.14062C169.912 9.57031 169.385 10.0391 168.838 10.5469C168.252 11.0938 167.666 11.2891 167.08 11.1328C166.533 10.9375 166.143 10.4492 165.908 9.66797C165.83 9.27734 165.771 8.86719 165.732 8.4375C165.693 8.08594 165.693 7.69531 165.732 7.26562C165.811 6.79688 165.967 6.34766 166.201 5.91797C167.49 5.13672 168.74 4.47266 169.951 3.92578C171.201 3.37891 172.393 2.89063 173.525 2.46094C173.76 1.79687 174.014 1.28906 174.287 0.9375C174.6 0.585938 174.912 0.351562 175.225 0.234375C175.537 0.117188 175.869 0.078125 176.221 0.117188C176.572 0.15625 176.943 0.214844 177.334 0.292969C178.193 0.488281 178.76 0.761719 179.033 1.11328C179.58 1.03516 180.107 0.976562 180.615 0.9375C181.123 0.898438 181.65 0.878906 182.197 0.878906C184.463 0.878906 186.436 1.17188 188.115 1.75781C189.795 2.34375 191.162 3.14453 192.217 4.16016C193.311 5.13672 194.092 6.28906 194.561 7.61719C195.029 8.94531 195.205 10.3516 195.088 11.8359C194.971 13.125 194.619 14.4727 194.033 15.8789C193.486 17.2461 192.744 18.6133 191.807 19.9805C190.869 21.3086 189.775 22.6172 188.525 23.9062C187.275 25.1562 185.889 26.3086 184.365 27.3633C185.576 28.0664 186.65 28.8867 187.588 29.8242C188.525 30.7617 189.307 31.7773 189.932 32.8711C190.557 33.9648 191.006 35.0781 191.279 36.2109C191.553 37.3438 191.65 38.4375 191.572 39.4922ZM172.178 25.1367C172.1 25.5273 172.002 25.918 171.885 26.3086C171.807 26.6992 171.709 27.1094 171.592 27.5391C172.061 27.0312 172.842 26.5625 173.936 26.1328C175.068 25.7031 176.143 25.4883 177.158 25.4883C177.705 25.4883 178.232 25.5273 178.74 25.6055C179.248 25.6445 179.736 25.7031 180.205 25.7812C181.299 25.0781 182.354 24.1797 183.369 23.0859C184.385 21.9531 185.264 20.7617 186.006 19.5117C186.787 18.2227 187.412 16.9141 187.881 15.5859C188.389 14.2578 188.701 13.0273 188.818 11.8945C189.053 9.19922 188.584 7.20703 187.412 5.91797C186.279 4.58984 184.658 3.92578 182.549 3.92578C181.143 3.92578 179.678 4.17969 178.154 4.6875C177.842 5.70313 177.451 6.97266 176.982 8.49609C176.514 9.98047 176.006 11.6211 175.459 13.418C174.951 15.2148 174.404 17.1094 173.818 19.1016C173.232 21.0938 172.686 23.1055 172.178 25.1367ZM171.182 29.0039C170.635 31.1133 170.088 33.3984 169.541 35.8594C169.033 37.9688 168.486 40.4297 167.9 43.2422C167.314 46.0156 166.689 48.9844 166.025 52.1484C166.26 52.3438 166.572 52.4805 166.963 52.5586C167.354 52.6367 167.744 52.7148 168.135 52.793C168.564 52.8711 169.033 52.9102 169.541 52.9102C171.299 52.9102 173.076 52.5391 174.873 51.7969C176.709 51.0938 178.389 50.0781 179.912 48.75C181.436 47.4219 182.705 45.8203 183.721 43.9453C184.775 42.0312 185.4 39.9023 185.596 37.5586C185.674 36.5039 185.596 35.5664 185.361 34.7461C185.166 33.8867 184.854 33.125 184.424 32.4609C184.033 31.7578 183.564 31.1523 183.018 30.6445C182.51 30.0977 181.963 29.6289 181.377 29.2383C179.58 30.2148 177.607 31.0352 175.459 31.6992C174.756 31.8945 174.15 31.9336 173.643 31.8164C173.135 31.6602 172.705 31.4453 172.354 31.1719C172.002 30.8594 171.729 30.5078 171.533 30.1172C171.338 29.7266 171.221 29.3555 171.182 29.0039ZM214.014 35.6836C213.623 37.168 213.096 38.5547 212.432 39.8438C211.768 41.1328 210.967 42.2461 210.029 43.1836C209.131 44.1211 208.096 44.8438 206.924 45.3516C205.791 45.8984 204.541 46.1719 203.174 46.1719C201.572 46.1719 200.303 45.8203 199.365 45.1172C198.467 44.4531 197.783 43.6133 197.314 42.5977C196.885 41.582 196.631 40.4688 196.553 39.2578C196.436 38.0469 196.377 36.9141 196.377 35.8594C196.377 35.1172 196.475 34.2969 196.67 33.3984C196.826 32.5 197.061 31.582 197.373 30.6445C197.686 29.707 198.076 28.7695 198.545 27.832C199.053 26.8945 199.639 26.0352 200.303 25.2539C200.537 24.5898 200.889 24.0039 201.357 23.4961C201.865 22.9883 202.432 22.5781 203.057 22.2656C203.721 21.9141 204.424 21.6602 205.166 21.5039C205.908 21.3086 206.631 21.2109 207.334 21.2109C207.451 21.2109 207.549 21.2305 207.627 21.2695C207.744 21.3086 207.861 21.3477 207.979 21.3867C208.486 21.4258 209.111 21.6211 209.854 21.9727C210.635 22.3242 211.377 22.8516 212.08 23.5547C212.822 24.2578 213.447 25.1562 213.955 26.25C214.463 27.3047 214.717 28.5938 214.717 30.1172C214.717 30.4297 214.697 30.8203 214.658 31.2891C214.619 31.7188 214.58 32.0898 214.541 32.4023C215.439 32.0508 216.377 31.6211 217.354 31.1133C218.33 30.6055 219.268 30.0781 220.166 29.5312C221.104 28.9453 221.963 28.3594 222.744 27.7734C223.525 27.1875 224.15 26.6602 224.619 26.1914C225.01 25.8398 225.342 25.6445 225.615 25.6055C225.889 25.5664 226.084 25.6445 226.201 25.8398C226.318 26.0352 226.338 26.3086 226.26 26.6602C226.182 27.0117 225.967 27.4023 225.615 27.832C225.42 28.0664 224.912 28.5352 224.092 29.2383C223.311 29.9414 222.373 30.7031 221.279 31.5234C220.186 32.3438 218.994 33.1445 217.705 33.9258C216.416 34.707 215.186 35.293 214.014 35.6836ZM204.111 26.7773C203.994 27.1289 203.936 27.5 203.936 27.8906C203.936 28.5156 203.975 29.1797 204.053 29.8828C204.131 30.5469 204.326 31.1523 204.639 31.6992C204.951 32.2461 205.439 32.7148 206.104 33.1055C206.807 33.457 207.764 33.6328 208.975 33.6328C209.17 33.6328 209.365 33.6328 209.561 33.6328C209.756 33.5938 209.951 33.5547 210.146 33.5156C210.264 33.0078 210.361 32.5586 210.439 32.168C210.557 31.7383 210.615 31.3672 210.615 31.0547C210.693 30.3125 210.693 29.5508 210.615 28.7695C210.537 27.9883 210.381 27.2852 210.146 26.6602C209.951 25.9961 209.678 25.4688 209.326 25.0781C209.014 24.6484 208.623 24.4336 208.154 24.4336C207.412 24.4336 206.689 24.6484 205.986 25.0781C205.322 25.4688 204.697 26.0352 204.111 26.7773ZM200.361 37.0898C200.361 37.793 200.4 38.4961 200.479 39.1992C200.557 39.8633 200.713 40.4688 200.947 41.0156C201.182 41.5234 201.494 41.9531 201.885 42.3047C202.275 42.6172 202.783 42.7734 203.408 42.7734C204.111 42.7734 204.756 42.6172 205.342 42.3047C205.928 41.9531 206.455 41.5234 206.924 41.0156C207.393 40.4688 207.803 39.8633 208.154 39.1992C208.545 38.4961 208.877 37.7734 209.15 37.0312C208.877 37.0703 208.604 37.1094 208.33 37.1484C208.096 37.1484 207.822 37.1484 207.51 37.1484C206.025 37.1484 204.736 36.7188 203.643 35.8594C202.588 34.9609 201.768 33.8281 201.182 32.4609C200.947 33.2812 200.752 34.082 200.596 34.8633C200.439 35.6445 200.361 36.3867 200.361 37.0898ZM237.686 46.4648C236.787 46.4648 236.006 46.2891 235.342 45.9375C234.717 45.625 234.209 45.1953 233.818 44.6484C233.428 44.1016 233.174 43.4766 233.057 42.7734C232.939 42.0312 232.979 41.25 233.174 40.4297C233.291 39.8828 233.486 39.1602 233.76 38.2617C234.033 37.3242 234.307 36.3281 234.58 35.2734C234.893 34.1797 235.166 33.1055 235.4 32.0508C235.674 30.957 235.85 29.9805 235.928 29.1211C236.006 28.2227 235.967 27.5 235.811 26.9531C235.654 26.3672 235.322 26.0742 234.814 26.0742C234.189 26.0742 233.545 26.2891 232.881 26.7188C232.217 27.1094 231.533 27.6562 230.83 28.3594C230.166 29.0625 229.482 29.8828 228.779 30.8203C228.115 31.7188 227.451 32.6562 226.787 33.6328C226.436 34.9609 226.143 36.1328 225.908 37.1484C225.674 38.125 225.459 39.0234 225.264 39.8438C225.107 40.625 224.951 41.3281 224.795 41.9531C224.639 42.5391 224.502 43.1055 224.385 43.6523C224.268 44.043 223.916 44.4336 223.33 44.8242C222.744 45.1758 222.119 45.4688 221.455 45.7031C220.791 45.9375 220.225 46.0547 219.756 46.0547C219.248 46.0547 219.033 45.8789 219.111 45.5273C219.15 45.293 219.287 44.7656 219.521 43.9453C219.717 43.125 219.971 42.168 220.283 41.0742C220.557 39.9414 220.85 38.75 221.162 37.5C221.475 36.25 221.768 35.0586 222.041 33.9258C222.236 33.0273 222.451 32.0312 222.686 30.9375C222.881 30 223.115 28.9062 223.389 27.6562C223.701 26.4062 224.053 25.0391 224.443 23.5547C224.717 23.3203 224.99 23.1445 225.264 23.0273C225.576 22.8711 225.889 22.7539 226.201 22.6758C226.514 22.5586 226.846 22.4805 227.197 22.4414C227.51 22.4414 227.822 22.4609 228.135 22.5C228.408 22.5391 228.682 22.6172 228.955 22.7344C229.268 22.8125 229.541 22.9492 229.775 23.1445C229.658 23.418 229.521 23.8086 229.365 24.3164C229.209 24.7852 229.053 25.293 228.896 25.8398C228.74 26.4648 228.545 27.1094 228.311 27.7734C228.818 27.0703 229.385 26.3672 230.01 25.6641C230.674 24.9219 231.377 24.2578 232.119 23.6719C232.9 23.0859 233.721 22.6172 234.58 22.2656C235.439 21.875 236.318 21.6797 237.217 21.6797C237.959 21.6797 238.623 21.8945 239.209 22.3242C239.795 22.7539 240.244 23.3594 240.557 24.1406C240.908 24.8828 241.104 25.7812 241.143 26.8359C241.221 27.8906 241.084 29.043 240.732 30.293L240.088 32.8711C239.893 33.6914 239.639 34.668 239.326 35.8008C239.053 36.8945 238.701 38.1055 238.271 39.4336C238.037 40.293 237.939 41.0352 237.979 41.6602C238.057 42.2852 238.447 42.5977 239.15 42.5977C239.854 42.5977 240.732 42.168 241.787 41.3086C242.881 40.4492 243.975 39.4141 245.068 38.2031C246.162 36.9922 247.197 35.7617 248.174 34.5117C249.15 33.2227 249.893 32.1875 250.4 31.4062C250.752 30.8984 251.084 30.5664 251.396 30.4102C251.709 30.2539 251.943 30.2344 252.1 30.3516C252.295 30.4688 252.393 30.7422 252.393 31.1719C252.393 31.5625 252.236 32.0703 251.924 32.6953C251.65 33.2422 251.221 33.9648 250.635 34.8633C250.088 35.7617 249.424 36.7188 248.643 37.7344C247.861 38.75 247.021 39.7852 246.123 40.8398C245.225 41.8555 244.287 42.793 243.311 43.6523C242.334 44.4727 241.357 45.1367 240.381 45.6445C239.443 46.1914 238.545 46.4648 237.686 46.4648ZM260.889 10.4883C260.771 10.918 260.537 11.3477 260.186 11.7773C259.873 12.168 259.502 12.5 259.072 12.7734C258.682 13.0078 258.271 13.1641 257.842 13.2422C257.412 13.3203 257.061 13.2422 256.787 13.0078C255.967 12.3828 255.537 11.7188 255.498 11.0156C255.459 10.2734 255.635 9.58984 256.025 8.96484C256.416 8.30078 256.904 7.75391 257.49 7.32422C258.076 6.85547 258.584 6.58203 259.014 6.50391C259.443 6.42578 259.795 6.52344 260.068 6.79688C260.381 7.03125 260.615 7.36328 260.771 7.79297C260.928 8.18359 261.006 8.63281 261.006 9.14062C261.045 9.64844 261.006 10.0977 260.889 10.4883ZM252.803 22.9688C252.998 22.7344 253.369 22.5391 253.916 22.3828C254.463 22.2266 255.029 22.1094 255.615 22.0312C256.201 21.9141 256.729 21.8555 257.197 21.8555C257.705 21.8164 257.998 21.8164 258.076 21.8555C258.115 21.8945 258.018 22.3047 257.783 23.0859C257.549 23.8672 257.256 24.7852 256.904 25.8398C256.553 26.8945 256.182 27.9883 255.791 29.1211C255.4 30.2148 255.107 31.1133 254.912 31.8164C254.717 32.5195 254.482 33.3203 254.209 34.2188C253.936 35.0781 253.682 35.9375 253.447 36.7969C253.252 37.6172 253.115 38.3984 253.037 39.1406C252.959 39.8828 253.018 40.4492 253.213 40.8398C253.408 41.3086 253.623 41.6406 253.857 41.8359C254.092 41.9922 254.346 42.0703 254.619 42.0703C255.4 42.0703 256.377 41.6406 257.549 40.7812C258.76 39.9219 259.971 38.9062 261.182 37.7344C262.432 36.5234 263.584 35.3125 264.639 34.1016C265.693 32.8516 266.475 31.8555 266.982 31.1133C267.295 30.7227 267.607 30.4688 267.92 30.3516C268.271 30.2344 268.545 30.2539 268.74 30.4102C268.975 30.5664 269.092 30.8203 269.092 31.1719C269.131 31.5234 269.014 31.9336 268.74 32.4023C268.115 33.4961 267.197 34.8047 265.986 36.3281C264.775 37.8125 263.486 39.2578 262.119 40.6641C260.752 42.0312 259.404 43.2031 258.076 44.1797C256.787 45.1562 255.732 45.6641 254.912 45.7031C254.248 45.7422 253.584 45.625 252.92 45.3516C252.295 45.1172 251.709 44.7852 251.162 44.3555C250.654 43.8867 250.225 43.3594 249.873 42.7734C249.521 42.1484 249.326 41.5039 249.287 40.8398C249.17 39.8633 249.17 38.5352 249.287 36.8555C249.404 35.1367 249.619 33.3984 249.932 31.6406C250.244 29.8438 250.635 28.1445 251.104 26.543C251.611 24.9414 252.178 23.75 252.803 22.9688ZM286.084 30.1758C286.24 29.9414 286.436 29.8047 286.67 29.7656C286.943 29.6875 287.158 29.707 287.314 29.8242C287.471 29.9414 287.549 30.1367 287.549 30.4102C287.588 30.6836 287.49 31.0547 287.256 31.5234C286.475 33.0078 285.439 34.6094 284.15 36.3281C282.9 38.0469 281.572 39.668 280.166 41.1914C278.76 42.6758 277.393 43.9062 276.064 44.8828C274.736 45.8594 273.623 46.3477 272.725 46.3477C271.436 46.3477 270.361 46.0938 269.502 45.5859C268.643 45.0781 267.959 44.4531 267.451 43.7109C266.982 42.9688 266.65 42.168 266.455 41.3086C266.26 40.4102 266.201 39.5898 266.279 38.8477C266.318 38.2227 266.455 37.1094 266.689 35.5078C266.924 33.8672 267.236 31.9922 267.627 29.8828C268.018 27.7344 268.447 25.4492 268.916 23.0273C269.424 20.5664 269.951 18.2031 270.498 15.9375C269.834 16.0156 269.17 16.0938 268.506 16.1719C267.842 16.25 267.236 16.2891 266.689 16.2891C265.439 16.2891 264.268 16.1523 263.174 15.8789C262.041 15.5664 261.201 15.2734 260.654 15C260.342 14.8438 260.205 14.6289 260.244 14.3555C260.283 14.043 260.4 13.75 260.596 13.4766C260.791 13.1641 261.045 12.9102 261.357 12.7148C261.631 12.4805 261.885 12.3633 262.119 12.3633C262.861 12.4414 263.662 12.5195 264.521 12.5977C265.381 12.6367 266.318 12.6367 267.334 12.5977C268.076 12.5586 268.779 12.5 269.443 12.4219C270.146 12.3437 270.83 12.2461 271.494 12.1289C272.002 10.2539 272.49 8.63281 272.959 7.26562C273.467 5.85938 273.916 4.88281 274.307 4.33594C274.424 4.14062 274.678 3.98438 275.068 3.86719C275.498 3.71094 275.947 3.61328 276.416 3.57422C276.885 3.49609 277.334 3.49609 277.764 3.57422C278.193 3.61328 278.506 3.75 278.701 3.98438C278.896 4.29688 278.975 5.09766 278.936 6.38672C278.896 7.67578 278.682 9.31641 278.291 11.3086C279.932 11.3086 281.377 11.4062 282.627 11.6016C283.916 11.7578 285.01 11.9531 285.908 12.1875C286.807 12.3828 287.529 12.5977 288.076 12.832C288.623 13.0273 289.033 13.1641 289.307 13.2422C289.58 13.3203 289.717 13.5156 289.717 13.8281C289.756 14.1406 289.697 14.4727 289.541 14.8242C289.424 15.1367 289.209 15.4102 288.896 15.6445C288.584 15.8789 288.232 15.957 287.842 15.8789C287.451 15.8398 287.002 15.7617 286.494 15.6445C286.025 15.5273 285.439 15.4297 284.736 15.3516C284.072 15.2734 283.271 15.1953 282.334 15.1172C281.396 15.0391 280.303 15 279.053 15C278.818 15 278.545 15.0195 278.232 15.0586C277.959 15.0586 277.666 15.0586 277.354 15.0586C277.197 15.6836 277.041 16.3086 276.885 16.9336C276.768 17.5195 276.592 18.1445 276.357 18.8086C275.85 20.3711 275.264 22.0703 274.6 23.9062C274.014 25.5078 273.311 27.3438 272.49 29.4141C271.67 31.4844 270.752 33.6914 269.736 36.0352C269.502 37.7148 269.521 39.0039 269.795 39.9023C270.107 40.7617 270.479 41.3867 270.908 41.7773C271.416 42.207 272.041 42.4414 272.783 42.4805C273.369 42.5586 274.072 42.3633 274.893 41.8945C275.752 41.3867 276.631 40.7227 277.529 39.9023C278.428 39.082 279.326 38.1836 280.225 37.207C281.162 36.2305 282.021 35.2734 282.803 34.3359C283.584 33.3984 284.268 32.5586 284.854 31.8164C285.439 31.0352 285.85 30.4883 286.084 30.1758ZM312.627 33.3398C312.08 34.1211 311.377 35.0977 310.518 36.2695C309.658 37.4023 308.76 38.5547 307.822 39.7266C306.924 40.8594 306.025 41.9141 305.127 42.8906C304.268 43.8281 303.545 44.4922 302.959 44.8828C302.568 45.1172 302.119 45.3125 301.611 45.4688C301.104 45.625 300.576 45.7227 300.029 45.7617C299.521 45.8008 299.033 45.7617 298.564 45.6445C298.096 45.5664 297.686 45.4102 297.334 45.1758C296.982 44.9023 296.689 44.5117 296.455 44.0039C296.26 43.5742 296.064 43.0078 295.869 42.3047C295.713 41.6016 295.654 40.7227 295.693 39.668C294.756 41.2305 293.721 42.4414 292.588 43.3008C291.455 44.1211 290.381 44.7266 289.365 45.1172C288.193 45.5469 287.021 45.8008 285.85 45.8789C285.303 45.8789 284.717 45.6836 284.092 45.293C283.467 44.9414 282.939 44.375 282.51 43.5938C282.08 42.7734 281.807 41.7383 281.689 40.4883C281.572 39.1992 281.729 37.6758 282.158 35.918C282.705 33.5352 283.564 31.3672 284.736 29.4141C285.947 27.4609 287.256 25.8008 288.662 24.4336C290.068 23.0273 291.455 21.9727 292.822 21.2695C294.189 20.5664 295.322 20.2539 296.221 20.332C297.275 20.5273 298.135 20.8398 298.799 21.2695C299.346 21.6602 299.697 22.2461 299.854 23.0273C300.049 23.7695 299.736 24.7656 298.916 26.0156C299.463 25.8984 299.912 25.8203 300.264 25.7812C300.654 25.7422 300.947 25.7227 301.143 25.7227C301.377 25.7227 301.533 25.7422 301.611 25.7812C301.65 25.8594 301.67 26.0352 301.67 26.3086C301.67 26.543 301.611 26.9922 301.494 27.6562C301.377 28.3203 301.201 29.2188 300.967 30.3516C300.732 31.4844 300.42 32.9492 300.029 34.7461C299.951 35.0977 299.873 35.4297 299.795 35.7422C299.756 36.0156 299.697 36.3086 299.619 36.6211C299.58 36.8945 299.521 37.2266 299.443 37.6172C299.365 38.0078 299.268 38.4961 299.15 39.082C299.111 39.4336 299.092 39.8242 299.092 40.2539C299.131 40.6445 299.209 41.0156 299.326 41.3672C299.443 41.7188 299.619 42.0117 299.854 42.2461C300.127 42.4414 300.498 42.5391 300.967 42.5391C301.357 42.5391 301.865 42.3047 302.49 41.8359C303.115 41.3281 303.779 40.7031 304.482 39.9609C305.186 39.1797 305.908 38.3398 306.65 37.4414C307.432 36.5039 308.154 35.6055 308.818 34.7461C309.482 33.8867 310.068 33.125 310.576 32.4609C311.123 31.7969 311.514 31.3086 311.748 30.9961C312.061 30.6445 312.373 30.4492 312.686 30.4102C312.998 30.332 313.232 30.4102 313.389 30.6445C313.545 30.8789 313.564 31.2305 313.447 31.6992C313.369 32.168 313.096 32.7148 312.627 33.3398ZM295.459 35.918C295.654 35.1367 295.889 34.2188 296.162 33.1641C296.436 32.1094 296.67 31.0938 296.865 30.1172C297.061 29.1406 297.197 28.3398 297.275 27.7148C297.393 27.0508 297.373 26.7383 297.217 26.7773C297.021 26.8164 296.807 26.875 296.572 26.9531C296.377 27.0312 296.123 27.0898 295.811 27.1289C295.498 27.168 295.186 27.2266 294.873 27.3047C295.186 26.6797 295.361 26.1719 295.4 25.7812C295.479 25.3516 295.498 25.0195 295.459 24.7852C295.42 24.5117 295.342 24.2969 295.225 24.1406C294.795 23.7891 294.033 24.082 292.939 25.0195C291.885 25.918 290.654 27.5977 289.248 30.0586C288.662 31.0742 288.193 32.168 287.842 33.3398C287.49 34.4727 287.236 35.5469 287.08 36.5625C286.963 37.5781 286.943 38.4766 287.021 39.2578C287.1 40 287.256 40.4883 287.49 40.7227C287.92 41.1523 288.408 41.3672 288.955 41.3672C289.502 41.3281 290.049 41.1719 290.596 40.8984C291.182 40.5859 291.748 40.1953 292.295 39.7266C292.881 39.2578 293.389 38.7695 293.818 38.2617C294.287 37.7539 294.658 37.2852 294.932 36.8555C295.244 36.4258 295.42 36.1133 295.459 35.918Z" fill="#50924E"/>
</svg>
